<?xml version="1.0" encoding="UTF-8"?>
<svg width="104px" height="104px" viewBox="0 0 104 104" version="1.1" xmlns="http://www.w3.org/2000/svg" xmlns:xlink="http://www.w3.org/1999/xlink">
    <!-- Generator: Sketch 61.2 (89653) - https://sketch.com -->
    <title>pin1</title>
    <desc>Created with Sketch.</desc>
    <g id="Page-1" stroke="none" stroke-width="1" fill="none" fill-rule="evenodd">
        <g id="pin1">
            <polyline id="Fill-87" fill="#0A3A69" points="51.849 0 55.579 4.468 59.96 0.639 62.944 5.634 67.872 2.537 70.038 7.938 75.388 5.651 76.683 11.324 82.326 9.903 82.717 15.708 88.513 15.187 87.99 20.981 93.796 21.373 92.374 27.016 98.046 28.31 95.76 33.661 101.161 35.827 98.065 40.754 103.061 43.738 99.231 48.12 103.698 51.849 99.231 55.578 103.061 59.96 98.065 62.944 101.161 67.871 95.76 70.037 98.046 75.388 92.374 76.683 93.796 82.325 87.99 82.716 88.513 88.512 82.717 87.989 82.326 93.796 76.683 92.372 75.388 98.047 70.038 95.759 67.872 101.16 62.944 98.064 59.96 103.06 55.579 99.231 51.849 103.697 48.12 99.231 43.739 103.06 40.754 98.064 35.827 101.16 33.661 95.759 28.311 98.047 27.016 92.372 21.373 93.796 20.982 87.989 15.187 88.512 15.709 82.716 9.903 82.325 11.325 76.683 5.652 75.388 7.939 70.037 2.538 67.871 5.634 62.944 0.639 59.96 4.467 55.578 0 51.849 4.467 48.12 0.639 43.738 5.634 40.754 2.538 35.827 7.939 33.661 5.652 28.31 11.325 27.016 9.903 21.373 15.709 20.981 15.187 15.187 20.982 15.708 21.373 9.903 27.016 11.324 28.311 5.651 33.661 7.938 35.827 2.537 40.754 5.634 43.739 0.639 48.12 4.468 51.849 0"></polyline>
            <path d="M94.712,51.849 C94.712,75.521 75.522,94.711 51.849,94.711 C28.177,94.711 8.987,75.521 8.987,51.849 C8.987,28.177 28.177,8.987 51.849,8.987 C75.522,8.987 94.712,28.177 94.712,51.849" id="Fill-88" fill="#FFFFFE"></path>
            <polygon id="Fill-89" fill="#0A3A69" points="34.505 69.996 62.85 69.996 62.85 59.327 34.505 59.327"></polygon>
            <path d="M60.917,34.197 L55.149,34.197 C55.149,34.197 44.82,38.51 44.388,38.88 C43.736,39.439 42.868,44.394 42.558,46.323 C41.876,50.572 43.749,47.747 43.749,47.747 L47.178,43.935 C52.295,39.842 55.737,40.835 55.459,42.446 C55.132,44.337 53.815,46.138 53.815,46.138 L53.722,49.58 C53.722,49.58 58.685,47.161 61.6,41.889 L60.917,34.197" id="Fill-90" fill="#0A3A69"></path>
            <polyline id="Fill-91" fill="#0A3A69" points="59.065 53.622 53.722 53.622 53.722 56.465 43.736 56.465 43.736 53.622 38.66 53.622 34.505 58.708 62.851 58.708 59.065 53.622"></polyline>
            <path d="M44.232,55.97 L53.227,55.97 L53.227,44.432 L44.232,44.432 L44.232,55.97 Z M43.24,56.961 L54.218,56.961 L54.218,43.44 L43.24,43.44 L43.24,56.961 Z" id="Fill-92" fill="#0A3A69"></path>
            <path d="M62.054,41.393 L66.127,41.393 L66.127,34.693 L61.459,34.693 L62.054,41.393 Z M67.12,42.385 L61.145,42.385 L60.374,33.701 L67.12,33.701 L67.12,42.385 L67.12,42.385 Z" id="Fill-93" fill="#0A3A69"></path>
            <path d="M51.849,12.443 C30.121,12.443 12.443,30.121 12.443,51.849 C12.443,73.577 30.121,91.255 51.849,91.255 C73.577,91.255 91.255,73.577 91.255,51.849 C91.255,30.121 73.577,12.443 51.849,12.443 Z M51.849,93.329 C28.977,93.329 10.37,74.721 10.37,51.849 C10.37,28.977 28.977,10.369 51.849,10.369 C74.722,10.369 93.329,28.977 93.329,51.849 C93.329,74.721 74.722,93.329 51.849,93.329 L51.849,93.329 Z" id="Fill-94" fill="#0A3A69"></path>
            <polyline id="Fill-106" fill="#C1242B" points="51.601 73.008 53.291 78.205 58.755 78.205 54.334 81.417 56.023 86.614 51.601 83.402 47.18 86.614 48.869 81.417 44.448 78.205 49.913 78.205 51.601 73.008"></polyline>
            <polyline id="Fill-107" fill="#C1242B" points="66.157 71.87 68.831 75.013 72.646 73.44 70.483 76.954 73.157 80.097 69.147 79.126 66.985 82.641 66.669 78.526 62.659 77.557 66.474 75.984 66.157 71.87"></polyline>
            <polyline id="Fill-108" fill="#C1242B" points="37.045 71.87 34.372 75.013 30.556 73.44 32.719 76.954 30.045 80.097 34.055 79.126 36.218 82.641 36.534 78.526 40.544 77.557 36.729 75.984 37.045 71.87"></polyline>
            <polyline id="Fill-109" fill="#C1242B" points="27.248 62.347 24.673 64.384 21.939 62.565 23.081 65.644 20.505 67.681 23.786 67.547 24.929 70.626 25.814 67.463 29.095 67.329 26.362 65.509 27.248 62.347"></polyline>
            <polyline id="Fill-110" fill="#C1242B" points="75.955 62.347 78.53 64.384 81.265 62.565 80.122 65.644 82.697 67.681 79.417 67.547 78.274 70.626 77.388 67.463 74.107 67.329 76.841 65.509 75.955 62.347"></polyline>
            <path d="M25.6705515,42.9180853 L17.7115383,39.3376668 L17,40.9193652 L17.3611187,43.450876 L18.8534337,44.1222045 L18.5308098,41.7855735 L18.5517889,41.7389386 L24.9135587,44.6008259 L25.6705515,42.9180853 Z M27.9823015,39.3358792 C28.3234399,38.7852583 28.5113576,38.2331257 28.5460546,37.6794811 C28.5807517,37.1258366 28.4736373,36.6118424 28.2247116,36.1374986 C27.9757859,35.6631547 27.599485,35.2714803 27.0958089,34.9624755 C26.6308772,34.6772402 26.1570985,34.5232277 25.6744729,34.5004378 C25.1918473,34.477648 24.7415369,34.5746715 24.3235418,34.7915085 C23.9055466,35.0083454 23.5613594,35.3371221 23.2909802,35.7778387 C23.124593,36.0490488 23.0085191,36.3319619 22.9427587,36.6265778 C22.8769983,36.9211937 22.8639023,37.2114569 22.9034707,37.4973674 C22.9430391,37.7832779 23.0388336,38.0495229 23.1908542,38.2961024 L23.1908542,38.2961024 L23.1596566,38.3469543 C22.4264859,37.8904888 21.9255028,37.4073238 21.6567073,36.8974593 C21.3879118,36.3875948 21.4020741,35.8905106 21.6991941,35.4062067 C21.874495,35.1204674 22.0960311,34.9264192 22.3638026,34.824062 C22.631574,34.7217049 22.9196349,34.723451 23.2279851,34.8293002 L23.2279851,34.8293002 L24.179512,33.278317 C23.7332987,33.0712242 23.2733805,32.9815417 22.7997575,33.0092695 C22.3261345,33.0369974 21.8758426,33.1815266 21.4488819,33.4428571 C21.0219211,33.7041876 20.6561666,34.0830587 20.3516186,34.5794701 C20.0693545,35.0395588 19.9047757,35.510188 19.857882,35.9913577 C19.8109884,36.4725274 19.8787382,36.9515394 20.0611315,37.4283939 C20.2435248,37.9052483 20.5394734,38.366779 20.9489772,38.8129859 C21.3584811,39.2591928 21.8772877,39.6766351 22.5053972,40.0653127 C23.1873298,40.4803449 23.8121117,40.7494951 24.3797429,40.8727634 C24.9473742,40.9960317 25.4586421,41.0047307 25.9135467,40.8988604 C26.3684513,40.7929902 26.7676834,40.6013043 27.1112428,40.323803 C27.4548023,40.0463016 27.7451552,39.7169936 27.9823015,39.3358792 Z M26.7428698,38.5854876 C26.5943098,38.8276395 26.4023928,39.0073629 26.1671187,39.1246578 C25.9318446,39.2419527 25.6811279,39.29478 25.4149685,39.28314 C25.1488091,39.2714999 24.8958641,39.1921426 24.6561337,39.0450682 C24.4769413,38.9351338 24.3280959,38.7988226 24.2095976,38.6361348 C24.0910993,38.473447 24.0065951,38.2974519 23.9560852,38.1081498 C23.9055752,37.9188476 23.8935868,37.7265148 23.9201199,37.5311515 C23.9466529,37.3357882 24.0156295,37.1472996 24.1270495,36.9656857 C24.2756095,36.7235337 24.4659444,36.5436729 24.6980542,36.4261032 C24.9301639,36.3085335 25.1773449,36.2560367 25.4395972,36.2686127 C25.7018495,36.2811887 25.9564731,36.3632423 26.2034681,36.5147735 C26.4504631,36.6663047 26.6398169,36.8574642 26.7715295,37.0882517 C26.903242,37.3190393 26.9685336,37.5657376 26.9674185,37.8283464 C26.9662746,38.0909553 26.8914299,38.3433357 26.7428698,38.5854876 Z M32.6560233,33.7095535 C33.192879,33.1577284 33.5510037,32.5380453 33.7303975,31.8505041 C33.9097912,31.162963 33.8855275,30.4576298 33.6576062,29.7345044 C33.4296849,29.0113791 32.9746515,28.317996 32.2925061,27.6543553 C31.6103606,26.9907145 30.9047285,26.5549177 30.1756099,26.3469649 C29.4464912,26.1390121 28.7407575,26.1341507 28.0584088,26.3323805 C27.37606,26.5306104 26.7664578,26.9056379 26.2296021,27.457463 C25.6887844,28.0133607 25.3291739,28.634571 25.1507707,29.321094 C24.9723674,30.007617 24.9976217,30.7119321 25.2265335,31.4340393 C25.4554453,32.1561465 25.9109739,32.8490205 26.5931194,33.5126613 C27.2732286,34.1743211 27.9773473,34.6096364 28.7054754,34.8186073 C29.4336035,35.0275782 30.1388558,35.0339531 30.8212322,34.8377319 C31.5036086,34.6415106 32.1152056,34.2654512 32.6560233,33.7095535 Z M31.4861948,32.5714591 C31.175175,32.8911512 30.8253799,33.093849 30.4368092,33.1795525 C30.0482385,33.265256 29.6383644,33.2261912 29.2071867,33.0623581 C28.7760091,32.898525 28.3394866,32.6016681 27.8976192,32.1717873 C27.4557519,31.7419066 27.147005,31.3137112 26.9713786,30.8872011 C26.7957522,30.4606911 26.7454327,30.052046 26.82042,29.6612658 C26.8954074,29.2704856 27.088411,28.9152495 27.3994307,28.5955575 C27.7104504,28.2758654 28.0602456,28.0731676 28.4488162,27.9874641 C28.8373869,27.9017606 29.2472611,27.9408254 29.6784387,28.1046585 C30.1096163,28.2684916 30.5461388,28.5653485 30.9880062,28.9952293 C31.4298736,29.42511 31.7386204,29.8533054 31.9142468,30.2798154 C32.0898733,30.7063255 32.1401928,31.1149706 32.0652054,31.5057508 C31.990218,31.8965309 31.7972145,32.2517671 31.4861948,32.5714591 Z M39.222782,29.015312 C39.9010712,28.6511022 40.4294186,28.1682881 40.8078245,27.5668698 C41.1862303,26.9654515 41.3758285,26.2856455 41.3766212,25.5274518 C41.3774097,24.769258 41.1526938,23.9709234 40.7024713,23.1324479 C40.2522487,22.2939723 39.7109144,21.6656471 39.0784683,21.2474722 C38.4460222,20.8292973 37.7746187,20.6118093 37.0642577,20.5950083 C36.3538968,20.5782073 35.6595718,20.7519118 34.9812826,21.1161216 C34.2979876,21.4830194 33.767763,21.9668414 33.3906086,22.5675878 C33.0134542,23.1683341 32.8251075,23.8474681 32.8255675,24.6049899 C32.8260291,25.3625116 33.0513708,26.1605103 33.5015933,26.9989858 C33.9504719,27.8349584 34.4905085,28.4623682 35.1217032,28.8812151 C35.7528979,29.300062 36.4233859,29.5188476 37.1331674,29.5375721 C37.8429488,29.5562965 38.539487,29.3822098 39.222782,29.015312 Z M38.450684,27.5773891 C38.0577268,27.7883889 37.6630858,27.8761476 37.2667611,27.8406653 C36.8704365,27.805183 36.4914311,27.6443172 36.129745,27.3580679 C35.768059,27.0718187 35.4413976,26.6571281 35.1497609,26.1139962 C34.8581242,25.5708642 34.6929007,25.069489 34.6540903,24.6098705 C34.6152799,24.150252 34.6905531,23.7454596 34.8799098,23.3954935 C35.0692665,23.0455274 35.3604235,22.7650444 35.7533806,22.5540446 C36.1463378,22.3430448 36.5409788,22.2552861 36.9373035,22.2907684 C37.3336282,22.3262507 37.7126335,22.4871165 38.0743196,22.7733658 C38.4360056,23.059615 38.762667,23.4743056 39.0543037,24.0174375 C39.3459404,24.5605694 39.5111639,25.0619447 39.5499743,25.5215632 C39.5887847,25.9811817 39.5135116,26.385974 39.3241548,26.7359402 C39.1347981,27.0859063 38.8436412,27.3663893 38.450684,27.5773891 Z M46.3587347,26.3547796 L45.9088781,23.5608179 L47.4406485,23.3147444 C48.0198458,23.2215451 48.5093879,23.0469397 48.9092748,22.7909281 L49.0751659,22.6762248 C49.5029044,22.3570585 49.8049825,21.9588402 49.9814003,21.4815699 C50.1578181,21.0042997 50.1999915,20.479572 50.1079205,19.9073868 C50.0158495,19.3352016 49.8131887,18.8491511 49.4999381,18.4492352 C49.1866875,18.0493193 48.7800949,17.7622566 48.2801604,17.588047 C47.7802258,17.4138375 47.203496,17.3793125 46.5499707,17.4844719 L46.5499707,17.4844719 L43.1505177,18.0314818 L44.5369981,26.6479173 L46.3587347,26.3547796 Z M45.2119096,19.2277084 L46.4404248,19.0300267 C46.7938333,18.9731593 47.0951263,18.9858238 47.3443037,19.0680201 C47.5934812,19.1502164 47.792131,19.2894599 47.9402532,19.4857506 C48.0883754,19.6820412 48.1854542,19.9232328 48.2314897,20.2093254 C48.2770739,20.4926132 48.2605571,20.7520836 48.1819395,20.9877366 C48.1033218,21.2233897 47.9595326,21.4206129 47.7505718,21.5794062 C47.541611,21.7381995 47.2618288,21.8458042 46.9112251,21.9022203 L46.9112251,21.9022203 L45.673913,22.1006013 L45.2119096,19.2277084 Z M56.9521843,25.881985 L56.9928983,24.3612231 L52.941793,24.2527663 L52.997561,22.1697059 L56.7291785,22.2696092 L56.7698925,20.7488473 L53.0382751,20.648944 L53.093929,18.5701434 L57.1279949,18.6781439 L57.1687089,17.157382 L51.2901335,17 L51.0565695,25.7241468 L56.9521843,25.881985 Z M59.0211985,26.4965725 L60.3339683,21.1628533 L60.3960364,21.1781299 L62.7701121,27.4192796 L64.3176769,27.8001764 L66.4034431,19.325811 L64.6200195,18.8868632 L63.3082681,24.2164445 L63.2337864,24.1981126 L60.8876574,17.9682298 L59.3152654,17.5812224 L57.2294992,26.0555878 L59.0211985,26.4965725 Z M66.1156791,29.0857363 L68.9866074,24.402821 L69.0411021,24.4362298 L69.4071619,31.103627 L70.7658976,31.9366194 L75.3273104,24.4962698 L73.7614947,23.536324 L70.8927936,28.2156064 L70.8273999,28.1755158 L70.4845438,21.5273424 L69.1040102,20.6809865 L64.5425974,28.121336 L66.1156791,29.0857363 Z M71.6066663,33.0331515 C71.7399064,33.1610032 71.8938352,33.2447268 72.0684528,33.284322 C72.2430704,33.3239173 72.4183136,33.320803 72.5941822,33.2749792 C72.7700508,33.2291554 72.9228945,33.1385985 73.0527132,33.0033086 C73.2454743,32.8024236 73.3369036,32.5594263 73.3270011,32.2743166 C73.3170987,31.9892069 73.2137548,31.7522385 73.0169695,31.5634113 C72.8140346,31.3686832 72.5714669,31.2737289 72.2892662,31.2785482 C72.0070654,31.2833675 71.7695845,31.3862196 71.5768234,31.5871046 C71.3820954,31.7900395 71.2876535,32.033099 71.2934977,32.3162832 C71.299342,32.5994673 71.4037315,32.8384235 71.6066663,33.0331515 Z M73.5190481,35.5268878 L78.3070676,32.4310351 L78.346402,32.4918694 L74.8204768,37.4611839 L75.4822211,38.484632 L81.4428726,37.3200858 L81.4822071,37.3809201 L76.7120801,40.4652039 L77.6838724,41.9681696 L85.0126197,37.2295251 L83.7770552,35.3186115 L77.5480748,36.48412 L77.4925438,36.3982362 L81.1115676,31.1961911 L79.876003,29.2852775 L72.5472557,34.0239221 L73.5190481,35.5268878 Z M79.8297317,47.899527 L81.2587368,47.3776851 L79.86862,43.5710078 L81.8259966,42.8562159 L83.1064828,46.362682 L84.5354878,45.84084 L83.2550016,42.3343739 L85.2083755,41.6210437 L86.5926453,45.4117097 L88.0216504,44.8898678 L86.0044461,39.3659828 L77.8066805,42.3596308 L79.8297317,47.899527 Z" id="16OOPENN.ME" fill="#C1242B" fill-rule="nonzero"></path>
        </g>
    </g>
</svg>