<?xml version="1.0" encoding="UTF-8"?>
<svg width="104px" height="104px" viewBox="0 0 104 104" version="1.1" xmlns="http://www.w3.org/2000/svg" xmlns:xlink="http://www.w3.org/1999/xlink">
    <!-- Generator: Sketch 61.2 (89653) - https://sketch.com -->
    <title>pin1</title>
    <desc>Created with Sketch.</desc>
    <g id="Page-1" stroke="none" stroke-width="1" fill="none" fill-rule="evenodd">
        <g id="pin1">
            <polyline id="Fill-87" fill="#0A3A69" points="51.849 0 55.579 4.468 59.96 0.639 62.944 5.634 67.872 2.537 70.038 7.938 75.388 5.651 76.683 11.324 82.326 9.903 82.717 15.708 88.513 15.187 87.99 20.981 93.796 21.373 92.374 27.016 98.046 28.31 95.76 33.661 101.161 35.827 98.065 40.754 103.061 43.738 99.231 48.12 103.698 51.849 99.231 55.578 103.061 59.96 98.065 62.944 101.161 67.871 95.76 70.037 98.046 75.388 92.374 76.683 93.796 82.325 87.99 82.716 88.513 88.512 82.717 87.989 82.326 93.796 76.683 92.372 75.388 98.047 70.038 95.759 67.872 101.16 62.944 98.064 59.96 103.06 55.579 99.231 51.849 103.697 48.12 99.231 43.739 103.06 40.754 98.064 35.827 101.16 33.661 95.759 28.311 98.047 27.016 92.372 21.373 93.796 20.982 87.989 15.187 88.512 15.709 82.716 9.903 82.325 11.325 76.683 5.652 75.388 7.939 70.037 2.538 67.871 5.634 62.944 0.639 59.96 4.467 55.578 0 51.849 4.467 48.12 0.639 43.738 5.634 40.754 2.538 35.827 7.939 33.661 5.652 28.31 11.325 27.016 9.903 21.373 15.709 20.981 15.187 15.187 20.982 15.708 21.373 9.903 27.016 11.324 28.311 5.651 33.661 7.938 35.827 2.537 40.754 5.634 43.739 0.639 48.12 4.468 51.849 0"></polyline>
            <path d="M94.712,51.849 C94.712,75.521 75.522,94.711 51.849,94.711 C28.177,94.711 8.987,75.521 8.987,51.849 C8.987,28.177 28.177,8.987 51.849,8.987 C75.522,8.987 94.712,28.177 94.712,51.849" id="Fill-88" fill="#FFFFFE"></path>
            <polygon id="Fill-89" fill="#0A3A69" points="34.505 69.996 62.85 69.996 62.85 59.327 34.505 59.327"></polygon>
            <path d="M60.917,34.197 L55.149,34.197 C55.149,34.197 44.82,38.51 44.388,38.88 C43.736,39.439 42.868,44.394 42.558,46.323 C41.876,50.572 43.749,47.747 43.749,47.747 L47.178,43.935 C52.295,39.842 55.737,40.835 55.459,42.446 C55.132,44.337 53.815,46.138 53.815,46.138 L53.722,49.58 C53.722,49.58 58.685,47.161 61.6,41.889 L60.917,34.197" id="Fill-90" fill="#0A3A69"></path>
            <polyline id="Fill-91" fill="#0A3A69" points="59.065 53.622 53.722 53.622 53.722 56.465 43.736 56.465 43.736 53.622 38.66 53.622 34.505 58.708 62.851 58.708 59.065 53.622"></polyline>
            <path d="M44.232,55.97 L53.227,55.97 L53.227,44.432 L44.232,44.432 L44.232,55.97 Z M43.24,56.961 L54.218,56.961 L54.218,43.44 L43.24,43.44 L43.24,56.961 Z" id="Fill-92" fill="#0A3A69"></path>
            <path d="M62.054,41.393 L66.127,41.393 L66.127,34.693 L61.459,34.693 L62.054,41.393 Z M67.12,42.385 L61.145,42.385 L60.374,33.701 L67.12,33.701 L67.12,42.385 L67.12,42.385 Z" id="Fill-93" fill="#0A3A69"></path>
            <path d="M51.849,12.443 C30.121,12.443 12.443,30.121 12.443,51.849 C12.443,73.577 30.121,91.255 51.849,91.255 C73.577,91.255 91.255,73.577 91.255,51.849 C91.255,30.121 73.577,12.443 51.849,12.443 Z M51.849,93.329 C28.977,93.329 10.37,74.721 10.37,51.849 C10.37,28.977 28.977,10.369 51.849,10.369 C74.722,10.369 93.329,28.977 93.329,51.849 C93.329,74.721 74.722,93.329 51.849,93.329 L51.849,93.329 Z" id="Fill-94" fill="#0A3A69"></path>
            <polyline id="Fill-106" fill="#C1242B" points="51.601 73.008 53.291 78.205 58.755 78.205 54.334 81.417 56.023 86.614 51.601 83.402 47.18 86.614 48.869 81.417 44.448 78.205 49.913 78.205 51.601 73.008"></polyline>
            <polyline id="Fill-107" fill="#C1242B" points="66.157 71.87 68.831 75.013 72.646 73.44 70.483 76.954 73.157 80.097 69.147 79.126 66.985 82.641 66.669 78.526 62.659 77.557 66.474 75.984 66.157 71.87"></polyline>
            <polyline id="Fill-108" fill="#C1242B" points="37.045 71.87 34.372 75.013 30.556 73.44 32.719 76.954 30.045 80.097 34.055 79.126 36.218 82.641 36.534 78.526 40.544 77.557 36.729 75.984 37.045 71.87"></polyline>
            <polyline id="Fill-109" fill="#C1242B" points="27.248 62.347 24.673 64.384 21.939 62.565 23.081 65.644 20.505 67.681 23.786 67.547 24.929 70.626 25.814 67.463 29.095 67.329 26.362 65.509 27.248 62.347"></polyline>
            <polyline id="Fill-110" fill="#C1242B" points="75.955 62.347 78.53 64.384 81.265 62.565 80.122 65.644 82.697 67.681 79.417 67.547 78.274 70.626 77.388 67.463 74.107 67.329 76.841 65.509 75.955 62.347"></polyline>
            <path d="M28.8332783,32.2589651 L23.7782963,25.1447226 L22.3644796,26.1493016 L21.3955969,28.51578 L22.343406,29.8497004 L23.246929,27.6708069 L23.288614,27.6411879 L27.329144,33.3277187 L28.8332783,32.2589651 Z M32.5865591,30.290329 C33.1541279,29.9782002 33.5889662,29.5895111 33.891074,29.1242617 C34.1931818,28.6590123 34.3522842,28.1586625 34.368381,27.6232122 C34.3844778,27.0877619 34.249019,26.5617752 33.9620045,26.0452519 C33.6970681,25.5684613 33.3599843,25.2016362 32.9507532,24.9447767 C32.5415221,24.6879173 32.1016036,24.5512984 31.6309977,24.5349202 C31.1603917,24.5185419 30.6991099,24.6359216 30.247152,24.8870593 C29.9690242,25.0416056 29.728978,25.2310542 29.5270137,25.4554052 C29.3250494,25.6797562 29.1710993,25.9261778 29.0651636,26.1946701 C28.9592278,26.4631623 28.9119288,26.7421351 28.9232665,27.0315883 L28.9232665,27.0315883 L28.8711176,27.0605658 C28.4566014,26.3028875 28.257459,25.6359731 28.2736904,25.0598226 C28.2899217,24.4836721 28.5463659,24.0576091 29.0430228,23.7816336 C29.3360504,23.6188081 29.6243268,23.5585612 29.9078521,23.600893 C30.1913773,23.6432249 30.4414541,23.7862062 30.6580825,24.0298372 L30.6580825,24.0298372 L32.2486263,23.1460257 C31.9616217,22.7464983 31.605021,22.4425187 31.1788241,22.234087 C30.7526272,22.0256553 30.2893958,21.9304285 29.7891299,21.9484064 C29.288864,21.9663844 28.7841944,22.1168108 28.275121,22.3996857 C27.803297,22.6618624 27.4288141,22.9910137 27.1516724,23.3871397 C26.8745307,23.7832656 26.6983163,24.2338109 26.6230291,24.7387756 C26.547742,25.2437402 26.5788998,25.7911206 26.7165025,26.3809168 C26.8541052,26.970713 27.101049,27.589128 27.4573338,28.2361619 C27.8475626,28.9325851 28.2596461,29.4738627 28.6935841,29.8599949 C29.1275222,30.2461272 29.5686237,30.5047775 30.0168888,30.635946 C30.4651538,30.7671145 30.9070637,30.7961881 31.3426186,30.7231668 C31.7781734,30.6501456 32.1928202,30.5058663 32.5865591,30.290329 Z M31.8753718,29.0279934 C31.6270433,29.1659811 31.3716031,29.2282947 31.1090513,29.2149342 C30.8464995,29.2015736 30.6021538,29.1244708 30.3760144,28.9836259 C30.149875,28.842781 29.9685014,28.6494359 29.8318936,28.4035908 C29.7297826,28.2198277 29.6670605,28.0279902 29.6437272,27.8280784 C29.620394,27.6281666 29.6332084,27.4333564 29.6821705,27.243648 C29.7311327,27.0539396 29.8151398,26.8805083 29.9341918,26.7233541 C30.0532438,26.5661999 30.205893,26.4358774 30.3921393,26.3323866 C30.6404678,26.1943989 30.8945972,26.1311886 31.1545275,26.1427559 C31.4144578,26.1543231 31.6555611,26.2299775 31.8778374,26.369719 C32.1001136,26.5094605 32.2816255,26.7059788 32.422373,26.9592738 C32.5631204,27.2125689 32.6341953,27.4720783 32.6356198,27.7378021 C32.6369995,28.0035259 32.5727279,28.2504919 32.4427825,28.4786998 C32.3128372,28.7069078 32.1237002,28.8900057 31.8753718,29.0279934 Z M39.3487845,27.543351 C40.0796447,27.301342 40.6832187,26.9166877 41.1595065,26.3893881 C41.6357942,25.8620885 41.939587,25.2250691 42.0708848,24.4783301 C42.2021826,23.731591 42.1182503,22.9064905 41.8190879,22.0030286 C41.5199254,21.0995667 41.0948351,20.3874335 40.5438169,19.8666291 C39.9927987,19.3458246 39.3688575,19.0160049 38.6719933,18.8771699 C37.975129,18.7383349 37.2612668,18.7899219 36.5304066,19.0319309 C35.7941526,19.275726 35.1885559,19.6610501 34.7136166,20.1879032 C34.2386773,20.7147563 33.9362329,21.3513291 33.8062836,22.0976217 C33.6763342,22.8439142 33.7609408,23.6687915 34.0601032,24.5722533 C34.3583726,25.4730183 34.7823422,26.1840263 35.3320119,26.7052773 C35.8816817,27.2265283 36.5044977,27.5574687 37.20046,27.6980987 C37.8964223,27.8387286 38.6125305,27.7871461 39.3487845,27.543351 Z M38.8357433,25.9939813 C38.4123298,26.1341858 38.008473,26.1526991 37.6241728,26.0495213 C37.2398727,25.9463435 36.8942174,25.7226354 36.587207,25.3783971 C36.2801965,25.0341588 36.0297984,24.5694258 35.8360126,23.9841983 C35.6422268,23.3989707 35.5657788,22.8766378 35.6066687,22.4171996 C35.6475585,21.9577614 35.7913908,21.5719698 36.0381655,21.2598248 C36.2849402,20.9476799 36.6200343,20.7215051 37.0434478,20.5813007 C37.4668613,20.4410962 37.8707181,20.4225828 38.2550182,20.5257606 C38.6393184,20.6289384 38.9849737,20.8526465 39.2919841,21.1968849 C39.5989945,21.5411232 39.8493926,22.0058561 40.0431784,22.5910837 C40.2369643,23.1763113 40.3134122,23.6986441 40.2725224,24.1580823 C40.2316326,24.6175205 40.0878003,25.0033121 39.8410256,25.3154571 C39.5942509,25.6276021 39.2591567,25.8537768 38.8357433,25.9939813 Z M47.2914643,26.2064617 C48.0600434,26.1616162 48.7425388,25.946069 49.3389503,25.5598202 C49.9353619,25.1735714 50.393506,24.6367403 50.7133826,23.9493268 C51.0332593,23.2619133 51.1654794,22.4431622 51.110043,21.4930736 C51.0546067,20.542985 50.828062,19.7451674 50.430409,19.0996208 C50.0327561,18.4540741 49.5152868,17.9741687 48.8780012,17.6599044 C48.2407157,17.3456401 47.5377833,17.2109307 46.7692042,17.2557763 C45.9949529,17.3009527 45.3103305,17.516624 44.7153369,17.9027901 C44.1203434,18.2889561 43.6636173,18.8257045 43.3451587,19.5130353 C43.0267002,20.200366 42.8951891,21.0190757 42.9506254,21.9691643 C43.0058963,22.9164168 43.2316492,23.7128578 43.6278841,24.3584872 C44.0241191,25.0041165 44.5402117,25.4848138 45.1761619,25.8005788 C45.8121122,26.1163439 46.5172129,26.2516382 47.2914643,26.2064617 Z M47.1963951,24.5771307 C46.7511296,24.6031113 46.3562149,24.516593 46.0116508,24.3175758 C45.6670868,24.1185585 45.3910126,23.8130983 45.1834283,23.4011952 C44.975844,22.989292 44.8540971,22.4756252 44.8181876,21.8601947 C44.7822781,21.2447641 44.8434587,20.7204237 45.0017295,20.2871734 C45.1600002,19.8539232 45.3986755,19.518428 45.7177554,19.2806881 C46.0368353,19.0429482 46.419008,18.9110879 46.8642734,18.8851073 C47.3095388,18.8591267 47.7044535,18.945645 48.0490176,19.1446622 C48.3935817,19.3436794 48.6696559,19.6491396 48.8772401,20.0610428 C49.0848244,20.4729459 49.2065713,20.9866128 49.2424808,21.6020433 C49.2783903,22.2174738 49.2172097,22.7418142 49.058939,23.1750645 C48.9006682,23.6083148 48.6619929,23.9438099 48.342913,24.1815498 C48.0238331,24.4192898 47.6416605,24.55115 47.1963951,24.5771307 Z M56.3693593,27.1046929 L57.2096777,24.4026324 L58.6911138,24.8637538 C59.2512723,25.0380468 59.7673702,25.0995404 60.2394075,25.0482348 L60.4390117,25.0193406 C60.9640958,24.9238732 61.4118283,24.7016917 61.7822091,24.3527961 C62.15259,24.0039005 62.4238718,23.5527642 62.5960547,22.9993873 C62.7682375,22.4460104 62.8030532,21.920554 62.7005018,21.4230183 C62.5979504,20.9254825 62.3615874,20.4874698 61.9914127,20.1089804 C61.6212381,19.730491 61.1201291,19.4429164 60.4880859,19.2462566 L60.4880859,19.2462566 L57.200376,18.2232879 L54.6075049,26.5564931 L56.3693593,27.1046929 Z M58.5140486,20.2118952 L59.7021814,20.5815819 C60.043973,20.6879301 60.308151,20.8333531 60.4947154,21.0178507 C60.6812798,21.2023483 60.7972085,21.4154469 60.8425015,21.6571466 C60.8877945,21.8988463 60.8673953,22.1580404 60.7813039,22.4347289 C60.6960565,22.7087047 60.5657957,22.9337154 60.3905216,23.109761 C60.2152474,23.2858066 59.9987128,23.3984348 59.7409178,23.4476456 C59.4831229,23.4968563 59.1846859,23.4687096 58.8456069,23.3632054 L58.8456069,23.3632054 L57.6490883,22.9904145 L58.5140486,20.2118952 Z M66.0427486,31.3779487 L66.7521703,30.0321793 L63.1672217,28.1423751 L64.1389507,26.2990104 L67.4411747,28.0397764 L68.1505964,26.694007 L64.8483724,24.953241 L65.8181142,23.1136459 L69.3879842,24.9955014 L70.097406,23.649732 L64.8952723,20.9074294 L60.8255362,28.6276974 L66.0427486,31.3779487 Z M67.6640321,32.682177 L70.9517616,28.2818633 L71.0029677,28.3201223 L70.7568826,34.9930248 L72.0336222,35.946951 L77.2572605,28.9556069 L75.7859376,27.8562963 L72.5007588,32.2531963 L72.4393115,32.2072854 L72.7067422,25.5556509 L71.4095201,24.5864211 L66.1858818,31.5777651 L67.6640321,32.682177 Z M73.5655975,37.4954034 L77.3955741,33.5579924 L77.4413934,33.6025616 L76.3330873,40.1873807 L77.4755169,41.2986384 L83.560693,35.0427674 L82.2441498,33.7621469 L78.4171445,37.6965032 L78.3621613,37.6430202 L79.4888785,31.0820547 L78.3281212,29.9529693 L72.2429451,36.2088403 L73.5655975,37.4954034 Z" id="16OOPENN" fill="#C1242B" fill-rule="nonzero" transform="translate(52.478145, 29.273007) rotate(-6.000000) translate(-52.478145, -29.273007) "></path>
        </g>
    </g>
</svg>