<?xml version="1.0" encoding="UTF-8"?>
<svg width="104px" height="104px" viewBox="0 0 104 104" version="1.1" xmlns="http://www.w3.org/2000/svg" xmlns:xlink="http://www.w3.org/1999/xlink">
    <!-- Generator: Sketch 61.2 (89653) - https://sketch.com -->
    <title>pin2</title>
    <desc>Created with Sketch.</desc>
    <g id="Page-1" stroke="none" stroke-width="1" fill="none" fill-rule="evenodd">
        <g id="pin2">
            <polyline id="Fill-243" fill="#C1242B" points="51.849 0 55.672 3.26 59.96 0.637 63.227 4.457 67.871 2.537 70.5 6.82 75.389 5.65 77.315 10.293 82.325 9.902 83.502 14.787 88.512 15.186 88.91 20.195 93.796 21.373 93.405 26.383 98.047 28.309 96.877 33.197 101.16 35.826 99.24 40.471 103.06 43.738 100.437 48.023 103.698 51.848 100.437 55.672 103.06 59.959 99.24 63.227 101.16 67.871 96.877 70.5 98.047 75.387 93.405 77.314 93.796 82.324 88.91 83.502 88.512 88.512 83.502 88.91 82.325 93.795 77.315 93.404 75.389 98.047 70.5 96.875 67.871 101.16 63.227 99.24 59.96 103.059 55.672 100.437 51.849 103.697 48.025 100.437 43.738 103.059 40.471 99.24 35.827 101.16 33.197 96.875 28.31 98.047 26.383 93.404 21.373 93.795 20.197 88.91 15.186 88.512 14.788 83.502 9.903 82.324 10.293 77.314 5.651 75.387 6.821 70.5 2.538 67.871 4.458 63.227 0.639 59.959 3.262 55.672 4.97379915e-14 51.848 3.262 48.023 0.639 43.738 4.458 40.471 2.538 35.826 6.821 33.197 5.651 28.309 10.293 26.383 9.903 21.373 14.788 20.195 15.186 15.186 20.197 14.787 21.373 9.902 26.383 10.293 28.31 5.65 33.197 6.82 35.827 2.537 40.471 4.457 43.738 0.637 48.025 3.26 51.849 0"></polyline>
            <path d="M95.661,51.848 C95.661,76.045 76.045,95.66 51.849,95.66 C27.652,95.66 8.037,76.045 8.037,51.848 C8.037,27.652 27.652,8.035 51.849,8.035 C76.045,8.035 95.661,27.652 95.661,51.848" id="Fill-244" fill="#FFFFFE"></path>
            <polyline id="Fill-275" fill="#0A3A69" points="79.924 53.582 84.183 54.162 84.949 58.391 86.815 54.521 91.074 55.1 87.969 52.129 89.834 48.256 86.05 50.291 82.946 47.32 83.711 51.549 79.924 53.582"></polyline>
            <polyline id="Fill-276" fill="#0A3A69" points="77 36.42 80.233 37.534 80.174 40.952 82.232 38.221 85.467 39.334 83.505 36.534 85.563 33.801 82.292 34.803 80.33 32 80.27 35.418 77 36.42"></polyline>
            <polyline id="Fill-277" fill="#0A3A69" points="23.773 53.582 19.515 54.162 18.749 58.391 16.883 54.521 12.624 55.1 15.729 52.129 13.863 48.256 17.648 50.291 20.752 47.32 19.987 51.549 23.773 53.582"></polyline>
            <polyline id="Fill-278" fill="#0A3A69" points="27.563 36.42 24.329 37.534 24.388 40.952 22.33 38.221 19.095 39.334 21.058 36.534 19 33.801 22.271 34.803 24.232 32 24.293 35.418 27.563 36.42"></polyline>
            <polyline id="Fill-116" fill="#C1242B" points="54.054 65.473 68.248 41.566 65.775 40.099 52.365 62.689 43.305 47.772 40.848 49.264 52.378 68.247 54.054 65.473"></polyline>
            <path d="M63.164,52.485 L63.164,68.888 C63.164,69.4 62.749,69.816 62.237,69.816 L40.725,69.816 C40.212,69.816 39.797,69.4 39.797,68.888 L39.797,46.913 C39.797,46.401 40.212,45.985 40.725,45.985 L61.042,45.985 L61.868,44.594 L40.725,44.594 C39.443,44.594 38.406,45.632 38.406,46.913 L38.406,68.888 C38.406,70.169 39.443,71.208 40.725,71.208 L62.237,71.208 C63.516,71.208 64.555,70.169 64.555,68.888 L64.555,50.141 L63.164,52.485" id="Fill-117" fill="#20568C"></path>
            <polyline id="Fill-118" fill="#0A3A69" points="40.003 20.164 42.337 20.164 38.835 36.504 36.501 36.504 33 20.164 35.334 20.164 37.058 28.918 37.66 33.003 38.28 28.918 40.003 20.164"></polyline>
            <path d="M45.214,24.741 L45.214,31.836 C45.214,33.586 45.632,34.754 47.384,34.754 C49.134,34.754 49.554,33.586 49.554,31.836 L49.554,24.741 C49.554,22.99 49.134,21.914 47.384,21.914 C45.632,21.914 45.214,22.99 45.214,24.741 Z M51.889,25.325 L51.889,31.252 C51.889,34.535 50.703,36.668 47.384,36.668 C44.038,36.668 42.879,34.58 42.879,31.252 L42.879,25.325 C42.879,21.996 44.038,20 47.384,20 C50.703,20 51.889,22.042 51.889,25.325 L51.889,25.325 Z" id="Fill-119" fill="#0A3A69"></path>
            <polyline id="Fill-120" fill="#0A3A69" points="60.464 22.242 57.546 22.242 57.546 36.504 55.212 36.504 55.212 22.242 52.293 22.242 52.293 20.164 60.464 20.164 60.464 22.242"></polyline>
            <polyline id="Fill-121" fill="#0A3A69" points="63.925 28.918 63.925 34.754 68.011 34.754 68.011 36.504 61.59 36.504 61.59 20.164 68.011 20.164 68.011 21.914 63.925 21.914 63.925 27.167 66.843 27.167 66.843 28.918 63.925 28.918"></polyline>
            <path d="M68.855,36.504 L71.189,36.504 L71.189,34.17 L68.855,34.17 L68.855,36.504 Z M71.189,20.164 L70.769,33.003 L69.437,33.003 L68.855,20.164 L71.189,20.164 L71.189,20.164 Z" id="Fill-122" fill="#0A3A69"></path>
            <path d="M83.8593998,79.2472772 L82.4657782,79.8573535 L83.96619,83.284804 L77.3650298,86.1745494 L78.1049824,87.8648524 L86.0997642,84.3650306 L83.8593998,79.2472772 Z M80.7205325,75.121205 C80.2542385,74.5968395 79.7511684,74.2106744 79.2113222,73.9627097 C78.671476,73.7147449 78.1267671,73.626974 77.5771953,73.6993969 C77.0276236,73.7718199 76.506577,74.0270196 76.0140556,74.4649962 L76.0140556,74.4649962 L71.7023702,78.299179 L72.9200205,79.6684734 L77.1839398,75.8767668 C77.4174629,75.6691055 77.6689931,75.5490276 77.9385304,75.516533 C78.2080677,75.4840384 78.4771488,75.5279835 78.7457735,75.6483683 C79.0143983,75.7687531 79.2629244,75.9573832 79.4913518,76.2142586 C79.7160036,76.4668881 79.8724171,76.733628 79.9605922,77.0144784 C80.0487673,77.2953287 80.060501,77.5671705 79.9957932,77.8300038 C79.9310855,78.0928371 79.7819701,78.3280843 79.548447,78.5357456 L79.548447,78.5357456 L75.2845277,82.3274523 L76.5106733,83.7062999 L80.8223587,79.8721172 C81.3148801,79.4341406 81.6296812,78.94701 81.7667621,78.4107253 C81.903843,77.8744406 81.8807871,77.3237381 81.6975943,76.7586179 C81.5144016,76.1934977 81.1887143,75.6476934 80.7205325,75.121205 Z M73.6056629,69.0591527 C73.1313662,68.7620652 72.6609587,68.5671418 72.1944403,68.4743827 C71.7279219,68.3816235 71.2807435,68.3730509 70.8529052,68.448665 C70.425067,68.524279 70.0314906,68.6682848 69.6721761,68.8806822 C69.3128617,69.0930797 69.0064217,69.3561955 68.7528563,69.6700297 L68.7528563,69.6700297 L70.3301234,70.668047 C70.4898982,70.4932449 70.6643897,70.3578309 70.8535979,70.261805 C71.0428061,70.165779 71.2407849,70.1079307 71.4475341,70.08826 C71.6542834,70.0685894 71.8646836,70.0872419 72.078735,70.1442175 C72.2927863,70.2011931 72.5045424,70.2952815 72.7140034,70.4264826 C73.0871809,70.6602317 73.3585117,70.9575704 73.5279957,71.3184987 C73.6974797,71.679427 73.7487201,72.0886461 73.681717,72.5461559 C73.6147138,73.0036657 73.4160798,73.4960524 73.085815,74.0233162 C72.7645985,74.5361344 72.4130159,74.9234994 72.0310674,75.1854114 C71.6491188,75.4473233 71.256905,75.583802 70.8544259,75.5948474 C70.4519468,75.6058929 70.0593034,75.4915249 69.6764954,75.2517436 C69.4646269,75.1190344 69.2866566,74.9656557 69.1425845,74.7916073 C68.9985123,74.617559 68.8920954,74.4302226 68.8233335,74.2295981 C68.7545716,74.0289736 68.7257931,73.8207097 68.7369979,73.6048063 C68.7482027,73.388903 68.803452,73.1695801 68.9027459,72.9468376 L68.9027459,72.9468376 L67.3209546,71.9560431 C67.1030797,72.4162646 66.9797692,72.8686747 66.9510231,73.3132735 C66.9222769,73.7578722 66.9779423,74.1841098 67.1180192,74.5919863 C67.258096,74.9998627 67.4740122,75.3789803 67.7657678,75.7293391 C68.0575235,76.0796979 68.4176774,76.3890945 68.8462297,76.657529 C69.4962809,77.0647048 70.1744496,77.282494 70.8807358,77.3108964 C71.587022,77.3392989 72.2690406,77.1656151 72.9267916,76.7898452 C73.5845426,76.4140753 74.166018,75.8229178 74.6712176,75.0163728 C75.1749092,74.2122354 75.454079,73.4333974 75.508727,72.6798588 C75.5633749,71.9263202 75.42478,71.2377866 75.0929421,70.6142579 C74.7611042,69.9907292 74.2653445,69.4723608 73.6056629,69.0591527 Z M67.4059569,65.910441 L66.1568702,67.5893933 L63.1711833,66.582182 L63.1945349,64.4897322 L61.3209972,63.8577006 L61.3820252,73.0887771 L63.6351158,73.8488496 L69.2794947,66.5424725 L67.4059569,65.910441 Z M63.1540173,68.0971771 L65.2518627,68.8048781 L63.178353,71.5900215 L63.1137483,71.5682274 L63.1540173,68.0971771 Z M56.9314966,63.0536549 C56.2273263,62.9610971 55.6112844,62.98829 55.083371,63.1352334 C54.5554577,63.2821769 54.1329594,63.531802 53.8158763,63.8841089 C53.4987932,64.2364157 53.3040415,64.6771521 53.2316214,65.2063179 C53.1870486,65.5672234 53.2105152,65.8955246 53.3020213,66.1912215 C53.3935275,66.4869185 53.541251,66.7527553 53.7451921,66.988732 C53.9491331,67.2247086 54.1995819,67.4338469 54.4965387,67.6161469 C54.7934955,67.7984468 55.125138,67.9566525 55.4914664,68.0907638 L55.4914664,68.0907638 L56.2444352,68.3788485 C56.4275994,68.4459042 56.5982936,68.5206332 56.7565178,68.6030355 C56.914742,68.6854378 57.0517686,68.7765151 57.1675974,68.8762676 C57.2834263,68.9760201 57.3696637,69.0883588 57.4263096,69.2132836 C57.4829555,69.3382084 57.4982804,69.4777593 57.4722843,69.6319363 C57.4478491,69.8178373 57.3717843,69.9768946 57.2440901,70.1091081 C57.1163959,70.2413216 56.944279,70.335461 56.7277394,70.3915263 C56.5111999,70.4475915 56.253646,70.4560019 55.9550778,70.4167574 C55.5156755,70.3590014 55.1802181,70.218919 54.9487056,69.9965104 C54.717193,69.7741017 54.6069357,69.4902668 54.6179334,69.1450056 L54.6179334,69.1450056 L52.8645493,68.9145368 C52.8052471,69.4311002 52.8836573,69.9027272 53.0997799,70.3294178 C53.3159026,70.7561085 53.6496469,71.1108666 54.1010131,71.3936921 C54.5523792,71.6765176 55.099164,71.8601367 55.7413673,71.9445493 C56.3723039,72.027481 56.9500792,71.9916767 57.4746931,71.8371362 C57.999307,71.6825957 58.4288833,71.4281702 58.7634218,71.0738597 C59.0979604,70.7195492 59.2982528,70.2802575 59.3642991,69.7559845 C59.4511582,69.1169681 59.3081421,68.5809749 58.9352509,68.148005 C58.5623596,67.715035 58.0228161,67.3618797 57.3166201,67.088539 L57.3166201,67.088539 L56.4055397,66.7280955 C56.1000676,66.6105792 55.844294,66.4909994 55.6382188,66.369356 C55.4321436,66.2477127 55.2807686,66.1132018 55.1840939,65.9658234 C55.0874192,65.818445 55.0518548,65.6475804 55.0774007,65.4532293 C55.1047978,65.2447949 55.1924232,65.0686325 55.3402771,64.9247421 C55.4881309,64.7808516 55.6827612,64.6789264 55.9241682,64.6189664 C56.1655751,64.5590064 56.441196,64.5493891 56.7510309,64.5901146 C57.0664993,64.6315804 57.3424851,64.7172838 57.5789884,64.8472248 C57.8154917,64.9771657 57.9950009,65.1483261 58.1175158,65.3607059 C58.2400308,65.5730857 58.2920797,65.8256304 58.2736627,66.1183402 L58.2736627,66.1183402 L60.0439469,66.3510304 C60.1116845,65.7266926 60.0288732,65.1850025 59.7955129,64.72596 C59.5621526,64.2669175 59.2011107,63.8963936 58.7123872,63.6143885 C58.2236638,63.3323833 57.6300335,63.1454721 56.9314966,63.0536549 Z M41.9347908,63.742292 L41.5516516,69.6718048 L41.4850865,69.6865648 L38.6273405,64.4756769 L36.8716876,64.8649706 L36.3230166,73.9258785 L38.2908455,73.4895375 L38.3857118,67.2442021 L38.4605975,67.2275972 L41.3278754,72.8161149 L43.0128029,72.4425037 L43.2560477,66.1773618 L43.326773,66.1616794 L46.0498327,71.769081 L48.0176616,71.33274 L43.6904437,63.3529983 L41.9347908,63.742292 Z M32.6952863,66.3587427 L32.9945841,68.4298743 L30.1679557,69.8223445 L28.7082223,68.3228734 L26.9344948,69.1966574 L33.4900145,75.6960158 L35.6230747,74.6452153 L34.4690138,65.4849587 L32.6952863,66.3587427 Z M31.2245763,70.9081888 L33.2106618,69.9297918 L33.7058095,73.3665321 L33.6446465,73.3966626 L31.2245763,70.9081888 Z M23.5010211,72.1588156 L28.0836663,77.7198684 L26.0217029,79.4190514 L26.9891803,80.593088 L32.5206355,76.034833 L31.5531581,74.8607964 L29.4911947,76.5599795 L24.9085496,70.9989267 L23.5010211,72.1588156 Z M18.0371696,78.4357791 L23.9708533,82.5244637 L22.4548242,84.7245937 L23.7075297,85.5877873 L27.7744532,79.6856844 L26.5217476,78.8224907 L25.0057185,81.0226207 L19.0720348,76.933936 L18.0371696,78.4357791 Z M15.1225802,85.5287543 C14.9472319,86.2784062 14.9600075,86.994016 15.160907,87.6755835 C15.3618065,88.357151 15.7463645,88.9489271 16.3145808,89.4509116 C16.8827972,89.9528962 17.6302512,90.3122679 18.5569427,90.5290269 C19.4836341,90.7457858 20.3129389,90.7552278 21.0448568,90.5573528 C21.7767747,90.3594778 22.383915,89.9996662 22.8662775,89.4779179 C23.3486401,88.9561696 23.6774956,88.3204696 23.8528438,87.5708176 C24.0294862,86.8156332 24.0171959,86.0979488 23.8159729,85.4177644 C23.6147499,84.73758 23.2298684,84.1471871 22.6613285,83.6465856 C22.0927886,83.1459842 21.3451729,82.787304 20.4184814,82.5705451 C19.4945561,82.3544332 18.6667963,82.3446232 17.9352019,82.541115 C17.2036075,82.7376069 16.5960992,83.0958737 16.112677,83.6159153 C15.6292548,84.1359569 15.2992226,84.7735699 15.1225802,85.5287543 Z M16.7117869,85.9004797 C16.8133725,85.4661795 17.0085175,85.1121153 17.2972221,84.8382871 C17.5859267,84.5644588 17.9572312,84.3865379 18.4111357,84.3045244 C18.8650401,84.222511 19.3921297,84.2517082 19.9924045,84.3921163 C20.5926793,84.5325243 21.0780347,84.7401442 21.4484707,85.0149761 C21.8189068,85.289808 22.0727733,85.6139603 22.2100701,85.987433 C22.347367,86.3609056 22.3652226,86.764792 22.2636371,87.1990922 C22.1620516,87.6333924 21.9669065,87.9874566 21.6782019,88.2612849 C21.3894973,88.5351131 21.0181928,88.713034 20.5642884,88.7950475 C20.110384,88.877061 19.5832943,88.8478637 18.9830196,88.7074557 C18.3827448,88.5670477 17.8973894,88.3594277 17.5269533,88.0845958 C17.1565172,87.8097639 16.9026508,87.4856117 16.7653539,87.112139 C16.6280571,86.7386663 16.6102014,86.3347799 16.7117869,85.9004797 Z" id="LUCASWATTO" fill="#0A3A69" fill-rule="nonzero" transform="translate(50.549882, 76.849500) rotate(-178.000000) translate(-50.549882, -76.849500) "></path>
        </g>
    </g>
</svg>