<?xml version="1.0" encoding="UTF-8"?>
<svg width="104px" height="104px" viewBox="0 0 104 104" version="1.1" xmlns="http://www.w3.org/2000/svg" xmlns:xlink="http://www.w3.org/1999/xlink">
    <!-- Generator: Sketch 61.2 (89653) - https://sketch.com -->
    <title>pin3</title>
    <desc>Created with Sketch.</desc>
    <g id="Page-1" stroke="none" stroke-width="1" fill="none" fill-rule="evenodd">
        <g id="pin3" transform="translate(0.000000, 0.000000)">
            <path d="M103.698,51.849 C103.698,80.484 80.484,103.697 51.849,103.697 C23.213,103.697 4.97379915e-14,80.484 4.97379915e-14,51.849 C4.97379915e-14,23.213 23.213,0 51.849,0 C80.484,0 103.698,23.213 103.698,51.849" id="Fill-1" fill="#0A3A69"></path>
            <path d="M95.662,51.849 C95.662,76.045 76.045,95.661 51.849,95.661 C27.652,95.661 8.037,76.045 8.037,51.849 C8.037,27.651 27.652,8.036 51.849,8.036 C76.045,8.036 95.662,27.651 95.662,51.849" id="Fill-2" fill="#FFFFFE"></path>
            <polygon id="Fill-3" fill="#0A3A69" points="40.334 52.441 63.363 52.441 63.363 50.396 40.334 50.396"></polygon>
            <polygon id="Fill-4" fill="#0A3A69" points="35.341 60.411 68.355 60.411 68.355 58.366 35.341 58.366"></polygon>
            <polygon id="Fill-5" fill="#0A3A69" points="42.031 56.955 44.078 56.955 44.078 51.806 42.031 51.806"></polygon>
            <polygon id="Fill-6" fill="#0A3A69" points="44.962 56.955 47.009 56.955 47.009 51.806 44.962 51.806"></polygon>
            <polygon id="Fill-7" fill="#0A3A69" points="47.894 56.955 49.94 56.955 49.94 51.806 47.894 51.806"></polygon>
            <polygon id="Fill-8" fill="#0A3A69" points="50.826 56.955 52.871 56.955 52.871 51.806 50.826 51.806"></polygon>
            <polygon id="Fill-9" fill="#0A3A69" points="53.757 56.955 55.802 56.955 55.802 51.806 53.757 51.806"></polygon>
            <polygon id="Fill-10" fill="#0A3A69" points="56.689 56.955 58.734 56.955 58.734 51.806 56.689 51.806"></polygon>
            <polygon id="Fill-11" fill="#0A3A69" points="59.621 56.955 61.666 56.955 61.666 51.806 59.621 51.806"></polygon>
            <polygon id="Fill-12" fill="#0A3A69" points="42.031 68.172 44.078 68.172 44.078 60.411 42.031 60.411"></polygon>
            <polygon id="Fill-13" fill="#0A3A69" points="44.962 68.172 47.009 68.172 47.009 60.411 44.962 60.411"></polygon>
            <polygon id="Fill-14" fill="#0A3A69" points="47.894 68.172 49.94 68.172 49.94 60.411 47.894 60.411"></polygon>
            <polygon id="Fill-15" fill="#0A3A69" points="50.826 68.172 52.871 68.172 52.871 60.411 50.826 60.411"></polygon>
            <polygon id="Fill-16" fill="#0A3A69" points="53.757 68.172 55.802 68.172 55.802 60.411 53.757 60.411"></polygon>
            <polygon id="Fill-17" fill="#0A3A69" points="56.689 68.172 58.734 68.172 58.734 60.411 56.689 60.411"></polygon>
            <polygon id="Fill-18" fill="#0A3A69" points="59.621 68.172 61.666 68.172 61.666 60.411 59.621 60.411"></polygon>
            <polygon id="Fill-19" fill="#0A3A69" points="62.339 68.172 64.386 68.172 64.386 60.411 62.339 60.411"></polygon>
            <polygon id="Fill-20" fill="#0A3A69" points="65.271 68.172 67.317 68.172 67.317 60.411 65.271 60.411"></polygon>
            <polygon id="Fill-21" fill="#0A3A69" points="36.38 68.172 38.425 68.172 38.425 60.411 36.38 60.411"></polygon>
            <polygon id="Fill-22" fill="#0A3A69" points="39.312 68.172 41.357 68.172 41.357 60.411 39.312 60.411"></polygon>
            <path d="M51.849,35.393 C45.734,35.393 42.302,43.81 43.806,49.267 L59.89,49.267 C61.394,43.81 57.962,35.393 51.849,35.393" id="Fill-23" fill="#0A3A69"></path>
            <polyline id="Fill-24" fill="#0A3A69" points="51.849 26.692 50.627 34.828 53.071 34.828 51.849 26.692"></polyline>
            <polyline id="Fill-25" fill="#0A3A69" points="51.849 34.828 51.849 26.692 50.627 34.828 51.849 34.828"></polyline>
            <path d="M98.966,59.507 C97.85,59.317 97.074,58.313 97.236,57.265 C97.277,57 97.374,56.755 97.511,56.535 C97.625,56.313 97.785,56.117 97.978,55.955 C98.365,55.634 98.888,55.447 99.453,55.489 C100.017,55.532 100.515,55.799 100.867,56.21 C101.042,56.414 101.179,56.653 101.269,56.915 C101.336,57.176 101.351,57.457 101.308,57.745 C101.132,58.907 100.083,59.696 98.966,59.507" id="Fill-26" fill="#FFFFFE"></path>
            <path d="M97.014,67.353 C96.478,67.169 96.072,66.792 95.841,66.343 C95.615,65.894 95.57,65.374 95.683,64.851 C95.945,63.821 97.052,63.204 98.154,63.471 C99.253,63.736 99.909,64.876 99.615,66.015 C99.488,66.586 99.08,67.013 98.595,67.249 C98.113,67.489 97.549,67.538 97.014,67.353" id="Fill-27" fill="#FFFFFE"></path>
            <path d="M93.971,74.414 C92.978,73.871 92.544,72.653 93.005,71.696 C93.466,70.74 94.687,70.323 95.73,70.764 C96.772,71.204 97.207,72.421 96.696,73.481 C96.185,74.539 94.964,74.956 93.971,74.414" id="Fill-28" fill="#FFFFFE"></path>
            <path d="M89.525,81.173 C88.638,80.471 88.433,79.211 89.07,78.36 C89.736,77.53 90.938,77.278 91.888,77.887 C92.845,78.5 93.138,79.819 92.407,80.742 C91.705,81.685 90.414,81.876 89.525,81.173" id="Fill-29" fill="#FFFFFE"></path>
            <path d="M84.328,86.831 C83.556,85.988 83.599,84.757 84.353,84.01 C85.066,83.223 86.33,83.198 87.172,83.953 C88.015,84.708 88.058,86.025 87.267,86.894 C86.433,87.72 85.084,87.658 84.328,86.831" id="Fill-30" fill="#FFFFFE"></path>
            <path d="M77.974,91.835 C77.664,91.36 77.576,90.816 77.671,90.324 C77.759,89.819 78.007,89.329 78.439,89.012 C79.289,88.375 80.55,88.579 81.255,89.465 C81.96,90.351 81.769,91.642 80.828,92.344 C80.357,92.69 79.81,92.829 79.289,92.731 C78.759,92.618 78.283,92.31 77.974,91.835" id="Fill-31" fill="#FFFFFE"></path>
            <path d="M71.22,95.509 C70.769,94.471 71.177,93.255 72.134,92.794 C73.091,92.337 74.317,92.767 74.857,93.728 C75.425,94.741 75.016,95.958 73.957,96.466 C72.897,96.978 71.671,96.548 71.22,95.509" id="Fill-32" fill="#FFFFFE"></path>
            <path d="M63.569,98.128 C63.3,97.028 63.916,95.922 64.945,95.659 C65.972,95.395 67.064,95.889 67.449,96.979 C67.82,98.023 67.253,99.29 66.117,99.587 C64.978,99.883 63.837,99.228 63.569,98.128" id="Fill-33" fill="#FFFFFE"></path>
            <path d="M55.996,99.427 C55.947,98.862 56.128,98.341 56.447,97.954 C56.765,97.56 57.214,97.236 57.744,97.162 C58.793,97.001 59.806,97.775 60.007,98.89 C60.209,100.004 59.429,101.052 58.267,101.228 C57.69,101.31 57.142,101.181 56.73,100.839 C56.316,100.489 56.044,99.99 55.996,99.427" id="Fill-34" fill="#FFFFFE"></path>
            <path d="M47.904,99.436 C48.005,98.31 48.947,97.436 50.009,97.49 C51.07,97.54 51.939,98.52 51.951,99.63 C51.96,100.783 51.019,101.642 49.845,101.587 C48.672,101.528 47.803,100.564 47.904,99.436" id="Fill-35" fill="#FFFFFE"></path>
            <path d="M40.326,98.178 C40.607,97.079 41.666,96.414 42.697,96.666 C43.746,96.825 44.46,97.862 44.291,98.981 C44.121,100.101 43.042,100.864 41.88,100.685 C40.738,100.408 40.044,99.271 40.326,98.178" id="Fill-36" fill="#FFFFFE"></path>
            <path d="M32.66,95.598 C32.888,95.079 33.296,94.708 33.76,94.521 C34.236,94.311 34.779,94.256 35.281,94.442 C36.278,94.806 36.796,95.974 36.439,97.048 C36.083,98.122 34.898,98.668 33.793,98.263 C33.246,98.06 32.833,97.672 32.627,97.189 C32.432,96.684 32.431,96.115 32.66,95.598" id="Fill-37" fill="#FFFFFE"></path>
            <path d="M25.898,91.94 C26.521,90.996 27.763,90.675 28.669,91.228 C29.572,91.786 29.888,93.036 29.376,94.016 C28.835,95.041 27.587,95.375 26.587,94.759 C25.582,94.148 25.274,92.886 25.898,91.94" id="Fill-38" fill="#FFFFFE"></path>
            <path d="M19.519,86.967 C20.293,86.141 21.557,86.049 22.341,86.765 C23.124,87.485 23.308,88.668 22.605,89.587 C21.933,90.466 20.562,90.688 19.695,89.896 C18.824,89.106 18.746,87.794 19.519,86.967" id="Fill-39" fill="#FFFFFE"></path>
            <path d="M14.293,81.336 C15.208,80.627 16.38,80.811 17.128,81.57 C17.844,82.356 17.755,83.624 16.934,84.402 C16.113,85.181 14.804,85.108 14.015,84.237 C13.195,83.394 13.418,82.013 14.293,81.336" id="Fill-40" fill="#FFFFFE"></path>
            <path d="M9.814,74.596 C10.808,74.067 12.072,74.368 12.622,75.275 C13.173,76.184 12.855,77.431 11.914,78.06 C10.974,78.689 9.714,78.386 9.104,77.381 C8.496,76.376 8.809,75.131 9.814,74.596" id="Fill-41" fill="#FFFFFE"></path>
            <path d="M6.753,67.544 C7.826,67.181 8.992,67.692 9.355,68.69 C9.681,69.702 9.271,70.838 8.232,71.312 C7.21,71.777 5.914,71.32 5.544,70.201 C5.138,69.098 5.681,67.907 6.753,67.544" id="Fill-42" fill="#FFFFFE"></path>
            <path d="M4.761,59.707 C5.89,59.528 6.894,60.243 7.097,61.284 C7.363,62.311 6.689,63.379 5.595,63.666 C4.5,63.954 3.375,63.265 3.084,62.126 C2.859,60.974 3.654,59.882 4.761,59.707" id="Fill-43" fill="#FFFFFE"></path>
            <path d="M4.072,52.0509874 C5.203,52.055 6.168,52.918 6.222,53.979 C6.275,55.04 5.403,55.989 4.277,56.097 C3.15,56.204 2.185,55.341 2.127,54.168 C2.067,52.995 2.939,52.047 4.072,52.0509874" id="Fill-44" fill="#FFFFFE"></path>
            <path d="M4.761,43.989 C5.877,44.184 6.653,45.191 6.492,46.241 C6.288,47.286 5.403,48.089 4.255,48.005 C3.144,47.925 2.205,46.901 2.421,45.743 C2.597,44.581 3.646,43.796 4.761,43.989" id="Fill-45" fill="#FFFFFE"></path>
            <path d="M6.613,36.534 C7.71,36.914 8.187,37.993 7.966,39.035 C7.703,40.064 6.595,40.685 5.494,40.423 C4.392,40.161 3.736,39.025 4.031,37.888 C4.283,36.736 5.574,36.172 6.613,36.534" id="Fill-46" fill="#FFFFFE"></path>
            <path d="M9.814,29.102 C10.804,29.648 11.238,30.869 10.777,31.825 C10.316,32.782 9.097,33.196 8.056,32.751 C7.015,32.306 6.583,31.086 7.093,30.026 C7.603,28.968 8.824,28.554 9.814,29.102" id="Fill-47" fill="#FFFFFE"></path>
            <path d="M14.05,22.685 C14.941,23.385 15.148,24.642 14.511,25.492 C13.841,26.319 12.671,26.598 11.705,25.983 C10.759,25.384 10.429,24.044 11.164,23.124 C11.867,22.183 13.16,21.986 14.05,22.685" id="Fill-48" fill="#FFFFFE"></path>
            <path d="M19.519,16.729 C20.281,17.569 20.256,18.824 19.475,19.544 C18.762,20.331 17.502,20.352 16.662,19.595 C15.822,18.836 15.781,17.515 16.573,16.646 C17.433,15.849 18.759,15.893 19.519,16.729" id="Fill-49" fill="#FFFFFE"></path>
            <path d="M25.55,11.967 C25.865,12.442 25.949,12.975 25.863,13.482 C25.787,14.003 25.532,14.481 25.103,14.802 C24.253,15.439 22.988,15.236 22.281,14.352 C21.572,13.471 21.76,12.183 22.701,11.479 C23.169,11.13 23.724,11.002 24.236,11.083 C24.755,11.177 25.242,11.498 25.55,11.967" id="Fill-50" fill="#FFFFFE"></path>
            <path d="M32.66,8.1 C33.107,9.14 32.695,10.358 31.738,10.819 C30.783,11.281 29.556,10.842 29.013,9.864 C28.458,8.862 28.875,7.652 29.931,7.139 C30.99,6.629 32.212,7.06 32.66,8.1" id="Fill-51" fill="#FFFFFE"></path>
            <path d="M39.933,5.619 C40.206,6.719 39.594,7.823 38.566,8.086 C37.549,8.389 36.446,7.868 36.058,6.787 C35.681,5.737 36.252,4.498 37.377,4.162 C38.514,3.868 39.66,4.521 39.933,5.619" id="Fill-52" fill="#FFFFFE"></path>
            <path d="M47.904,4.261 C47.989,5.397 47.191,6.304 46.146,6.505 C45.096,6.667 44.085,5.892 43.89,4.777 C43.693,3.662 44.476,2.613 45.638,2.438 C46.796,2.222 47.822,3.141 47.904,4.261" id="Fill-53" fill="#FFFFFE"></path>
            <path d="M55.591,4.251 C55.495,5.378 54.556,6.251 53.496,6.196 C52.435,6.136 51.561,5.18 51.545,4.076 C51.53,2.915 52.468,2.036 53.641,2.099 C54.814,2.158 55.687,3.122 55.591,4.251" id="Fill-54" fill="#FFFFFE"></path>
            <path d="M63.569,5.568 C63.283,6.665 62.218,7.338 61.191,7.072 C60.146,6.889 59.432,5.871 59.607,4.747 C59.781,3.634 60.868,2.853 62.023,3.058 C63.162,3.349 63.855,4.474 63.569,5.568" id="Fill-55" fill="#FFFFFE"></path>
            <path d="M70.855,8.012 C70.627,8.537 70.228,8.891 69.754,9.104 C69.277,9.324 68.738,9.372 68.236,9.188 C67.238,8.825 66.716,7.654 67.068,6.579 C67.42,5.503 68.601,4.957 69.706,5.361 C70.253,5.563 70.666,5.958 70.877,6.431 C71.084,6.91 71.08,7.499 70.855,8.012" id="Fill-56" fill="#FFFFFE"></path>
            <path d="M77.974,11.861 C77.345,12.804 76.101,13.123 75.193,12.571 C74.283,12.024 73.988,10.747 74.505,9.771 C75.046,8.747 76.284,8.444 77.291,9.049 C78.296,9.658 78.601,10.919 77.974,11.861" id="Fill-57" fill="#FFFFFE"></path>
            <path d="M84.029,16.593 C83.259,17.423 81.997,17.517 81.212,16.802 C80.406,16.111 80.237,14.905 80.931,13.989 C81.603,13.1 82.955,12.898 83.847,13.661 C84.718,14.449 84.798,15.763 84.029,16.593" id="Fill-58" fill="#FFFFFE"></path>
            <path d="M89.525,22.523 C89.08,22.872 88.541,23.007 88.039,22.954 C87.541,22.896 87.075,22.653 86.7,22.271 C85.984,21.485 86.075,20.22 86.9,19.444 C87.724,18.669 89.036,18.746 89.824,19.615 C90.23,20.036 90.371,20.606 90.302,21.144 C90.24,21.677 89.972,22.177 89.525,22.523" id="Fill-59" fill="#FFFFFE"></path>
            <path d="M93.781,28.927 C92.785,29.463 91.527,29.163 90.976,28.256 C90.423,27.349 90.74,26.098 91.677,25.465 C92.617,24.831 93.874,25.13 94.484,26.135 C95.093,27.141 94.778,28.391 93.781,28.927" id="Fill-60" fill="#FFFFFE"></path>
            <path d="M97.014,36.345 C95.941,36.703 94.773,36.187 94.41,35.19 C94.22,34.69 94.289,34.14 94.478,33.672 C94.665,33.207 95.036,32.798 95.553,32.568 C96.072,32.34 96.639,32.338 97.144,32.533 C97.644,32.729 98.019,33.148 98.226,33.693 C98.632,34.798 98.087,35.984 97.014,36.345" id="Fill-61" fill="#FFFFFE"></path>
            <path d="M98.905,43.79 C97.769,43.975 96.794,43.258 96.552,42.225 C96.287,41.197 96.959,40.127 98.052,39.834 C99.146,39.541 100.271,40.227 100.562,41.366 C100.828,42.511 100.003,43.612 98.905,43.79" id="Fill-62" fill="#FFFFFE"></path>
            <path d="M99.636,51.8490387 C98.503,51.84 97.541,50.973 97.486,49.911 C97.432,48.85 98.304,47.906 99.431,47.803 C100.558,47.699 101.523,48.566 101.582,49.739 C101.64,50.913 100.768,51.856 99.636,51.8490387" id="Fill-63" fill="#FFFFFE"></path>
            <path d="M51.849,11.703 C29.712,11.703 11.703,29.712 11.703,51.849 C11.703,73.985 29.712,91.994 51.849,91.994 C73.986,91.994 91.995,73.985 91.995,51.849 C91.995,29.712 73.986,11.703 51.849,11.703 Z M51.849,94.068 C28.568,94.068 9.628,75.129 9.628,51.849 C9.628,28.568 28.568,9.629 51.849,9.629 C75.128,9.629 94.068,28.568 94.068,51.849 C94.068,75.129 75.128,94.068 51.849,94.068 L51.849,94.068 Z" id="Fill-64" fill="#0A3A69"></path>
            <polyline id="Fill-85" fill="#0A3A69" points="23.685 46.825 25.375 52.022 30.838 52.022 26.418 55.234 28.106 60.431 23.685 57.22 19.264 60.431 20.953 55.234 16.533 52.022 21.997 52.022 23.685 46.825"></polyline>
            <polyline id="Fill-86" fill="#0A3A69" points="80.214 46.825 81.904 52.022 87.368 52.022 82.947 55.234 84.636 60.431 80.214 57.22 75.794 60.431 77.482 55.234 73.062 52.022 78.526 52.022 80.214 46.825"></polyline>
            <path d="M30.0938105,35.448393 C30.5031507,34.8679937 30.7654963,34.3099419 30.8808472,33.7742376 C30.9961981,33.2385333 30.9716291,32.7484172 30.80714,32.3038891 C30.642651,31.8593611 30.342995,31.4820243 29.908172,31.1718789 C29.6093702,30.9646184 29.3078003,30.832755 29.0034622,30.776289 C28.6991242,30.719823 28.395085,30.7270118 28.0913449,30.7978554 C27.7876047,30.8686991 27.4860024,30.9931963 27.1865382,31.1713472 C26.8870739,31.3494981 26.5928146,31.5695601 26.3037604,31.8315333 L26.3037604,31.8315333 L25.6986234,32.3642284 C25.5540963,32.495215 25.4085734,32.6115938 25.2620548,32.7133648 C25.1155361,32.8151358 24.9711926,32.8941062 24.8290243,32.9502759 C24.6868559,33.0064456 24.5473027,33.030565 24.4103645,33.0226339 C24.2734263,33.0147029 24.1427506,32.9633883 24.0183375,32.8686903 C23.8651121,32.7606245 23.759657,32.6193294 23.7019723,32.4448052 C23.6442877,32.2702809 23.6409654,32.0741294 23.6920056,31.8563507 C23.7430458,31.6385719 23.8553461,31.4066379 24.0289063,31.1605486 C24.2843346,30.7983794 24.5643222,30.5665137 24.868869,30.4649515 C25.1734159,30.3633893 25.4759701,30.397739 25.7765317,30.5680004 L25.7765317,30.5680004 L26.7957887,29.1228061 C26.3660244,28.8301339 25.9120165,28.6802771 25.4337652,28.6732357 C24.9555139,28.6661943 24.4862609,28.7967327 24.0260063,29.0648509 C23.5657517,29.3329691 23.1489653,29.7316903 22.7756471,30.2610145 C22.4088783,30.7810523 22.1719484,31.3092288 22.0648575,31.8455441 C21.9577666,32.3818594 21.9832948,32.8804739 22.1414421,33.3413875 C22.2995894,33.8023012 22.5953902,34.1838718 23.0288447,34.4860993 C23.55421,34.8601018 24.0952416,34.9826864 24.6519398,34.8538531 C25.208638,34.7250199 25.7721556,34.4115332 26.3424926,33.9133933 L26.3424926,33.9133933 L27.085204,33.2743572 C27.3312715,33.0585471 27.5560594,32.8876966 27.7595675,32.7618057 C27.9630757,32.6359148 28.1525439,32.564435 28.3279721,32.5473662 C28.5034003,32.5302975 28.6712095,32.5782521 28.8313997,32.69123 C29.0031979,32.8123946 29.1184219,32.9718777 29.1770717,33.1696792 C29.2357215,33.3674806 29.2354695,33.5871842 29.1763157,33.8287899 C29.117162,34.0703956 28.9975302,34.3188864 28.8174205,34.5742621 C28.6340361,34.834281 28.4298432,35.0387766 28.2048416,35.1877491 C27.9798401,35.3367215 27.7448439,35.41607 27.4998531,35.4257947 C27.2548622,35.4355193 27.0070737,35.3641832 26.7564877,35.2117862 L26.7564877,35.2117862 L25.7274065,36.6709101 C26.2486663,37.0211589 26.7667503,37.1996941 27.2816586,37.2065158 C27.7965669,37.2133375 28.2924696,37.0659615 28.7693667,36.7643878 C29.2462638,36.4628141 29.687745,36.0241492 30.0938105,35.448393 Z M36.1687427,29.6006288 C36.7519162,29.2103751 37.2032123,28.7648026 37.5226309,28.2639112 C37.8420495,27.7630199 38.0034421,27.2354177 38.0068545,26.6811048 C38.010175,26.1267918 37.8285812,25.5757563 37.462027,25.0279982 L37.462027,25.0279982 L34.2530985,20.2327541 L32.7302366,21.2518378 L35.9036157,25.9939588 C36.0774129,26.2536717 36.1619876,26.5192527 36.1573397,26.7907019 C36.1526918,27.0621511 36.0723838,27.3227012 35.9164157,27.5723525 C35.7604477,27.8220037 35.5396216,28.0424178 35.2539374,28.2335947 C34.9729753,28.4216117 34.6873613,28.5401022 34.3970954,28.5890662 C34.1068295,28.6380302 33.8359348,28.6125012 33.5844114,28.5124793 C33.332888,28.4124574 33.1202277,28.23259 32.9464305,27.9728771 L32.9464305,27.9728771 L29.7730513,23.230756 L28.2395649,24.2569496 L31.4484934,29.0521937 C31.8150475,29.5999518 32.2545835,29.9783751 32.7671012,30.1874635 C33.279619,30.396552 33.8283051,30.4489768 34.4131594,30.3447378 C34.9980138,30.2404989 35.5832083,29.9924626 36.1687427,29.6006288 Z M42.5408899,26.2163853 L41.840365,23.4742696 L43.3442009,23.0911584 C43.9126314,22.9460988 44.3844299,22.7280512 44.7595962,22.4370156 L44.9144656,22.3078174 C45.3116738,21.9513725 45.5766038,21.5275316 45.7092555,21.0362948 C45.8419073,20.5450579 45.8365815,20.0186651 45.6932781,19.4571163 C45.5499746,18.8955675 45.304301,18.4297768 44.9562571,18.0597443 C44.6082132,17.6897117 44.1773864,17.4404912 43.6637768,17.3120829 C43.1501672,17.1836745 42.572674,17.2013078 41.9312972,17.3649828 L41.9312972,17.3649828 L38.5950366,18.2163737 L40.7530176,26.6726381 L42.5408899,26.2163853 Z M40.7559193,19.2217994 L41.9615976,18.9141185 C42.3084366,18.8256076 42.6096438,18.8110456 42.8652193,18.8704326 C43.1207948,18.9298196 43.3311939,19.0505785 43.4964166,19.2327094 C43.6616394,19.4148402 43.7800766,19.6462928 43.8517283,19.9270673 C43.9226775,20.205089 43.9296308,20.4649915 43.8725881,20.706775 C43.8155454,20.9485584 43.6901306,21.1579467 43.4963437,21.3349399 C43.3025568,21.511933 43.0336202,21.6443338 42.6895339,21.7321423 L42.6895339,21.7321423 L41.4746546,22.041197 L40.7559193,19.2217994 Z M50.5050658,24.7610394 L50.4431026,21.9313055 L51.9945599,21.8985652 C52.5810701,21.8858603 53.0899652,21.780199 53.5212452,21.5815812 L53.7013276,21.490768 C54.1688754,21.2334231 54.522821,20.8805046 54.7631646,20.4320125 C55.0035081,19.9835205 55.1174044,19.4695697 55.1048534,18.8901602 C55.0923024,18.3107507 54.9583721,17.8014578 54.7030625,17.3622817 C54.4477529,16.9231056 54.0844757,16.5828818 53.613231,16.3416103 C53.1419862,16.1003389 52.5754756,15.9868707 51.913699,16.0012059 L51.913699,16.0012059 L48.4713247,16.0757737 L48.6603281,24.8009996 L50.5050658,24.7610394 Z M50.3487319,17.5439824 L51.5927583,17.5170347 C51.9506289,17.5092826 52.2473215,17.5632392 52.4828362,17.6789045 C52.7183509,17.7945698 52.8959765,17.9597959 53.015713,18.1745827 C53.1354494,18.3893695 53.1984554,18.6416153 53.2047309,18.9313201 C53.2109449,19.2181846 53.1589211,19.4729222 53.0486594,19.6955327 C52.9383977,19.9181433 52.7688651,20.093731 52.5400616,20.2222958 C52.3112582,20.3508606 52.0193413,20.4189883 51.6643109,20.4266789 L51.6643109,20.4266789 L50.4110941,20.4536521 L50.3487319,17.5439824 Z M60.6135308,25.7486373 C61.3655505,25.9135355 62.0809131,25.8908018 62.7596187,25.6804361 C63.4383243,25.4700705 64.024691,25.0773139 64.5187189,24.5021663 C65.0127468,23.9270187 65.3616812,23.1746356 65.5655221,22.2450172 C65.769363,21.3153988 65.7672623,20.486043 65.5592202,19.7569498 C65.3511781,19.0278567 64.9829515,18.4257828 64.4545406,17.9507283 C63.9261297,17.4756737 63.2859144,17.1556974 62.5338947,16.9907992 C61.7763251,16.8246841 61.0588812,16.8469614 60.3815631,17.0576313 C59.7042451,17.2683011 59.1192658,17.661362 58.6266254,18.2368139 C58.133985,18.8122657 57.7857444,19.5648009 57.5819035,20.4944193 C57.3786711,21.4212628 57.3803822,22.249079 57.5870368,22.9778679 C57.7936915,23.7066568 58.1603784,24.3091201 58.6870976,24.7852579 C59.2138168,25.2613957 59.8559612,25.5825222 60.6135308,25.7486373 Z M60.9631028,24.1544111 C60.5274309,24.0588797 60.170685,23.8686811 59.8928653,23.5838154 C59.6150456,23.2989498 59.4319744,22.9301574 59.3436517,22.4774383 C59.2553291,22.0247193 59.2771878,21.4972744 59.4092281,20.8951036 C59.5412683,20.2929329 59.7421133,19.8047349 60.0117631,19.4305099 C60.2814129,19.0562848 60.6020007,18.7979316 60.9735263,18.6554503 C61.345052,18.512969 61.7486508,18.489494 62.1843228,18.5850254 C62.6199947,18.6805568 62.9767405,18.8707554 63.2545602,19.1556211 C63.53238,19.4404868 63.7154511,19.8092791 63.8037738,20.2619982 C63.8920965,20.7147173 63.8702377,21.2421622 63.7381975,21.8443329 C63.6061572,22.4465036 63.4053122,22.9347016 63.1356624,23.3089267 C62.8660126,23.6831518 62.5454249,23.941505 62.1738992,24.0839863 C61.8023735,24.2264675 61.3987747,24.2499425 60.9631028,24.1544111 Z M67.7328945,28.2143644 L69.4367981,25.6310434 L70.5611946,26.3727587 L70.2371183,29.8662915 L71.9374293,30.9879124 L72.2587058,27.1355359 L72.3460151,27.1530095 C72.7890375,27.2177144 73.2030393,27.1776365 73.5880205,27.0327758 L73.7780927,26.9516135 C74.2159516,26.7418605 74.5944422,26.3950987 74.9135645,25.9113282 C75.2311224,25.4299292 75.4050528,24.9431229 75.4353555,24.4509095 C75.4656582,23.958696 75.3502884,23.4861024 75.0892459,23.0331284 C74.8282035,22.5801545 74.422597,22.1722058 73.8724267,21.8092825 L73.8724267,21.8092825 L70.9982607,19.9133207 L66.1926546,27.1983353 L67.7328945,28.2143644 Z M71.7078441,22.1885759 L72.7465278,22.8737502 C73.0429558,23.0692908 73.2604422,23.274868 73.3989868,23.4904818 C73.5375314,23.7060956 73.6000737,23.9285799 73.5866136,24.1579347 C73.5731535,24.3872896 73.4866429,24.6229096 73.3270818,24.8647949 C73.169085,25.1043087 72.9888782,25.2730164 72.7864614,25.3709181 C72.5840447,25.4688198 72.3590144,25.4939475 72.1113705,25.4463013 C71.8637267,25.3986551 71.5928765,25.2778438 71.2988199,25.0838675 L71.2988199,25.0838675 L70.2534008,24.3931221 L71.7078441,22.1885759 Z M75.1945709,35.3699581 L81.1313447,31.2857615 L82.6457097,33.4870371 L83.8990676,32.624791 L79.8366083,26.7196145 L78.5832504,27.5818607 L80.0976154,29.7831363 L74.1608417,33.8673329 L75.1945709,35.3699581 Z" id="SUPPORT" fill="#C1242B" fill-rule="nonzero"></path>
            <path d="M35.2095049,85.0814693 C36.1224086,85.4381618 36.9478194,85.5913903 37.6857374,85.5411549 C38.4236554,85.4909194 39.0512383,85.2751898 39.5684864,84.893966 C40.0857344,84.5127422 40.4707516,83.9986448 40.723538,83.351674 C40.9577144,82.7523328 41.0326982,82.1857247 40.9484895,81.6518496 C40.8642808,81.1179745 40.6660582,80.6504975 40.3538217,80.2494188 C40.0415852,79.8483401 39.657149,79.5471539 39.2005131,79.3458602 L39.2005131,79.3458602 L39.2470382,79.2267858 C39.7089569,79.2974658 40.1502148,79.2834403 40.5708116,79.1847093 C40.9914085,79.0859783 41.3671418,78.8942289 41.6980116,78.6094614 C42.0288814,78.3246938 42.2873665,77.9441612 42.4734669,77.4678636 C42.7122958,76.856615 42.7727698,76.256887 42.6548889,75.6686795 C42.5370079,75.080472 42.2303499,74.5363137 41.7349148,74.0362045 C41.2394798,73.5360953 40.5432487,73.1107961 39.6462216,72.7603069 L39.6462216,72.7603069 L34.7641713,70.8527774 L30,83.0459957 L35.2095049,85.0814693 Z M37.2596751,77.709112 L35.348531,76.962384 L36.5279425,73.943848 L38.4867164,74.709186 C39.0582735,74.9325066 39.4471126,75.2399882 39.6532337,75.6316308 C39.8593548,76.0232735 39.8763439,76.4393825 39.704201,76.8799578 C39.5785832,77.2014586 39.3904248,77.4459099 39.1397258,77.6133115 C38.8890268,77.7807131 38.6013238,77.8730364 38.2766167,77.8902813 C37.9519097,77.9075263 37.6129291,77.8471365 37.2596751,77.709112 L37.2596751,77.709112 Z M35.5031183,82.7668157 L33.4014552,81.9456475 L34.6669381,78.7068239 L36.8281385,79.5512546 C37.2409297,79.7125417 37.5684701,79.9251585 37.8107597,80.1891051 C38.0530493,80.4530518 38.2051594,80.7458145 38.26709,81.0673933 C38.3290206,81.3889722 38.2940754,81.7184503 38.1622542,82.0558278 C37.9823571,82.5162488 37.6737974,82.8200274 37.2365751,82.9671636 C36.7993527,83.1142998 36.2215338,83.0475172 35.5031183,82.7668157 L35.5031183,82.7668157 Z M54.7189226,87.9664816 L54.7265896,85.6845343 L49.1144053,85.6656782 L49.1507216,74.8567903 L46.3829816,74.8474911 L46.3389983,87.9383263 L54.7189226,87.9664816 Z M64.1965921,85.7003614 L60.6238238,77.9298045 L60.7225528,77.8844106 L67.3466421,84.1816694 L69.0076132,83.4179835 L68.5529216,74.3193183 L68.6516506,74.2739244 L72.2110678,82.0154434 L74.6502561,80.8939466 L69.1816241,69 L66.0803705,70.4259031 L66.4791262,79.9231584 L66.339744,79.9872439 L59.3900255,73.5020085 L56.2887719,74.9279116 L61.7574038,86.8218582 L64.1965921,85.7003614 Z" id="BLM" fill="#C1242B" fill-rule="nonzero"></path>
        </g>
    </g>
</svg>