<?xml version="1.0" encoding="UTF-8"?>
<svg width="104px" height="104px" viewBox="0 0 104 104" version="1.1" xmlns="http://www.w3.org/2000/svg" xmlns:xlink="http://www.w3.org/1999/xlink">
    <!-- Generator: Sketch 61.2 (89653) - https://sketch.com -->
    <title>pin4</title>
    <desc>Created with Sketch.</desc>
    <g id="Page-1" stroke="none" stroke-width="1" fill="none" fill-rule="evenodd">
        <g id="pin4" transform="translate(0.000000, 0.000000)">
            <path d="M103.698,51.851 C103.698,80.484 80.486,103.699 51.85,103.699 C23.215,103.699 0,80.484 0,51.851 C0,23.214 23.215,0 51.85,0 C80.486,0 103.698,23.214 103.698,51.851" id="Fill-225" fill="#0A3A69"></path>
            <path d="M51.848,95.078 C27.976,95.078 8.622,75.723 8.622,51.851 C8.622,27.976 27.976,8.623 51.848,8.623 C75.724,8.623 95.077,27.976 95.077,51.851 C95.077,75.723 75.724,95.078 51.848,95.078 Z" id="Fill-226" fill="#FFFFFE"></path>
            <path d="M35.206,43.486 C33.54,43.486 32.178,44.848 32.178,46.514 L32.178,53.659 C32.178,55.325 33.54,56.688 35.206,56.688 L37.85,56.688 L37.85,43.486 L35.206,43.486" id="Fill-227" fill="#0A3A69"></path>
            <path d="M41.608,72.633 C41.608,73.633 42.426,74.451 43.424,74.451 L45.024,74.451 C46.023,74.451 46.841,73.633 46.841,72.633 L46.841,59.338 L41.608,59.338 L41.608,72.633" id="Fill-228" fill="#0A3A69"></path>
            <path d="M49.098,43.029 C49.098,42.361 48.553,41.818 47.886,41.818 L40.275,41.818 C39.606,41.818 39.061,42.361 39.061,43.029 L39.061,56.916 C39.061,57.584 39.606,58.127 40.275,58.127 L47.886,58.127 C48.553,58.127 49.098,57.584 49.098,56.916 L49.098,43.029" id="Fill-229" fill="#0A3A69"></path>
            <path d="M69.425,38.156 C69.399,38.17 61.169,42.154 50.296,42.9 C50.296,42.943 50.309,42.984 50.309,43.029 L50.309,56.916 C50.309,57.02 50.289,57.119 50.276,57.219 C61.069,57.957 68.994,61.838 68.994,61.838 C71.493,59.033 73.15,55.431 73.518,51.4 C73.975,46.422 72.376,41.729 69.425,38.156" id="Fill-230" fill="#0A3A69"></path>
            <polyline id="Fill-231" fill="#C1242B" points="51.85 75.885 53.642 81.406 59.446 81.406 54.752 84.818 56.544 90.34 51.85 86.926 47.153 90.34 48.948 84.818 44.25 81.406 50.055 81.406 51.85 75.885"></polyline>
            <polyline id="Fill-232" fill="#C1242B" points="67.311 74.676 70.153 78.016 74.205 76.346 71.909 80.078 74.748 83.416 70.489 82.385 68.19 86.119 67.856 81.748 63.595 80.719 67.647 79.047 67.311 74.676"></polyline>
            <polyline id="Fill-233" fill="#C1242B" points="36.386 74.676 33.547 78.016 29.495 76.346 31.791 80.078 28.95 83.416 33.208 82.385 35.507 86.119 35.844 81.748 40.102 80.719 36.049 79.047 36.386 74.676"></polyline>
            <polyline id="Fill-234" fill="#C1242B" points="25.978 64.559 23.244 66.723 20.339 64.791 21.553 68.063 18.817 70.227 22.301 70.084 23.515 73.355 24.456 69.994 27.94 69.852 25.038 67.918 25.978 64.559"></polyline>
            <polyline id="Fill-235" fill="#C1242B" points="77.72 64.559 80.456 66.723 83.36 64.791 82.146 68.063 84.884 70.227 81.397 70.084 80.185 73.355 79.243 69.994 75.757 69.852 78.661 67.918 77.72 64.559"></polyline>
            <path d="M53.727,5.598 C53.105,5.573 52.479,5.561 51.85,5.561 L51.706,5.561 L51.706,3.486 L51.85,3.486 C52.506,3.486 53.16,3.499 53.81,3.525 L53.727,5.598 Z M47.676,5.745 L47.491,3.68 C48.188,3.617 48.889,3.57 49.594,3.537 L49.691,5.608 C49.016,5.641 48.342,5.686 47.676,5.745 Z M57.749,5.934 C57.085,5.85 56.416,5.777 55.743,5.721 L55.915,3.655 C56.619,3.714 57.318,3.787 58.013,3.877 L57.749,5.934 Z M43.676,6.28 L43.311,4.238 C44,4.115 44.696,4.007 45.395,3.914 L45.668,5.969 C45,6.059 44.335,6.162 43.676,6.28 Z M61.727,6.616 C61.072,6.473 60.412,6.346 59.747,6.23 L60.097,4.187 C60.794,4.305 61.483,4.44 62.169,4.589 L61.727,6.616 Z M39.737,7.16 L39.196,5.159 C39.873,4.976 40.556,4.807 41.245,4.652 L41.695,6.678 C41.038,6.824 40.384,6.984 39.737,7.16 Z M65.63,7.645 C64.987,7.445 64.341,7.26 63.688,7.088 L64.218,5.082 C64.899,5.262 65.575,5.457 66.245,5.664 L65.63,7.645 Z M35.893,8.383 L35.176,6.438 C35.835,6.195 36.5,5.967 37.172,5.752 L37.803,7.73 C37.161,7.934 36.523,8.151 35.893,8.383 Z M69.435,9.016 C68.811,8.76 68.183,8.518 67.549,8.289 L68.251,6.336 C68.916,6.577 69.573,6.83 70.225,7.098 L69.435,9.016 Z M32.177,9.936 L31.295,8.059 C31.928,7.761 32.569,7.477 33.218,7.205 L34.018,9.119 C33.398,9.378 32.784,9.65 32.177,9.936 Z M73.104,10.718 C72.507,10.408 71.901,10.111 71.288,9.826 L72.161,7.945 C72.802,8.242 73.433,8.553 74.058,8.875 L73.104,10.718 Z M28.611,11.808 L27.567,10.015 C28.172,9.662 28.788,9.322 29.411,8.995 L30.373,10.832 C29.778,11.145 29.191,11.469 28.611,11.808 Z M76.606,12.73 C76.04,12.369 75.463,12.022 74.878,11.686 L75.911,9.887 C76.522,10.238 77.126,10.604 77.721,10.98 L76.606,12.73 Z M25.216,13.983 L24.022,12.288 C24.595,11.885 25.178,11.491 25.769,11.111 L26.889,12.857 C26.324,13.221 25.766,13.596 25.216,13.983 Z M79.923,15.041 C79.388,14.632 78.843,14.234 78.291,13.85 L79.477,12.147 C80.054,12.55 80.623,12.965 81.182,13.393 L79.923,15.041 Z M22.024,16.449 L20.686,14.863 C21.223,14.41 21.77,13.969 22.326,13.539 L23.594,15.182 C23.061,15.592 22.538,16.015 22.024,16.449 Z M83.022,17.628 C82.525,17.176 82.018,16.732 81.501,16.301 L82.83,14.709 C83.37,15.16 83.9,15.621 84.42,16.097 L83.022,17.628 Z M19.053,19.183 L17.584,17.719 C18.081,17.221 18.586,16.734 19.104,16.258 L20.51,17.781 C20.014,18.238 19.529,18.705 19.053,19.183 Z M85.885,20.475 C85.429,19.98 84.962,19.494 84.485,19.022 L85.947,17.55 C86.446,18.047 86.935,18.551 87.409,19.069 L85.885,20.475 Z M16.331,22.164 L14.74,20.834 C15.191,20.295 15.654,19.765 16.127,19.245 L17.661,20.643 C17.206,21.141 16.762,21.647 16.331,22.164 Z M88.489,23.557 C88.077,23.023 87.655,22.502 87.221,21.987 L88.804,20.648 C89.257,21.186 89.7,21.732 90.13,22.288 L88.489,23.557 Z M13.875,25.37 L12.176,24.184 C12.579,23.605 12.995,23.037 13.422,22.479 L15.069,23.74 C14.659,24.273 14.262,24.818 13.875,25.37 Z M90.815,26.852 C90.452,26.284 90.076,25.727 89.689,25.178 L91.384,23.982 C91.788,24.557 92.181,25.139 92.561,25.73 L90.815,26.852 Z M11.707,28.781 L9.912,27.746 C10.262,27.136 10.627,26.535 11.003,25.941 L12.755,27.051 C12.395,27.62 12.045,28.197 11.707,28.781 Z M92.846,30.332 C92.532,29.736 92.206,29.148 91.869,28.57 L93.661,27.525 C94.015,28.131 94.354,28.745 94.682,29.367 L92.846,30.332 Z M9.846,32.369 L7.965,31.496 C8.262,30.855 8.573,30.225 8.897,29.6 L10.738,30.555 C10.428,31.151 10.129,31.757 9.846,32.369 Z M94.563,33.975 C94.303,33.354 94.03,32.741 93.744,32.136 L95.62,31.25 C95.919,31.885 96.204,32.525 96.476,33.175 L94.563,33.975 Z M8.305,36.107 L6.354,35.402 C6.594,34.738 6.848,34.081 7.118,33.432 L9.034,34.221 C8.778,34.843 8.535,35.472 8.305,36.107 Z M95.955,37.756 C95.751,37.113 95.532,36.479 95.3,35.848 L97.247,35.131 C97.489,35.789 97.718,36.456 97.932,37.128 L95.955,37.756 Z M7.099,39.965 L5.094,39.436 C5.275,38.754 5.469,38.078 5.678,37.408 L7.659,38.026 C7.459,38.668 7.272,39.314 7.099,39.965 Z M97.013,41.652 C96.864,40.992 96.702,40.34 96.526,39.691 L98.528,39.15 C98.712,39.826 98.882,40.508 99.036,41.195 L97.013,41.652 Z M6.238,43.908 L4.194,43.557 C4.315,42.859 4.45,42.17 4.599,41.484 L6.625,41.928 C6.482,42.582 6.353,43.242 6.238,43.908 Z M97.725,45.623 C97.636,44.953 97.532,44.289 97.413,43.631 L99.454,43.264 C99.577,43.953 99.686,44.648 99.78,45.35 L97.725,45.623 Z M5.725,47.91 L3.659,47.736 C3.717,47.031 3.792,46.334 3.88,45.64 L5.938,45.901 C5.853,46.566 5.782,47.236 5.725,47.91 Z M98.089,49.643 C98.058,48.967 98.011,48.296 97.95,47.629 L100.017,47.441 C100.079,48.141 100.127,48.842 100.161,49.547 L98.089,49.643 Z M3.485,51.947 L3.485,51.851 C3.485,51.178 3.499,50.507 3.526,49.842 L5.598,49.924 C5.573,50.563 5.559,51.205 5.559,51.851 L3.485,51.947 Z M100.169,53.959 L98.097,53.87 C98.126,53.201 98.14,52.527 98.14,51.851 L98.14,51.667 L100.214,51.651 L100.214,51.851 C100.214,52.558 100.198,53.26 100.169,53.959 Z M3.674,56.16 C3.614,55.464 3.567,54.763 3.536,54.057 L5.607,53.964 C5.637,54.64 5.682,55.312 5.741,55.98 L3.674,56.16 Z M99.807,58.16 L97.751,57.893 C97.837,57.229 97.909,56.559 97.968,55.886 L100.033,56.064 C99.974,56.768 99.897,57.465 99.807,58.16 Z M4.229,60.34 C4.107,59.65 3.998,58.955 3.907,58.254 L5.963,57.984 C6.051,58.654 6.155,59.318 6.272,59.98 L4.229,60.34 Z M99.079,62.313 L97.054,61.865 C97.198,61.211 97.329,60.551 97.444,59.885 L99.487,60.244 C99.366,60.938 99.229,61.629 99.079,62.313 Z M5.145,64.457 C4.963,63.781 4.795,63.098 4.643,62.408 L6.666,61.959 C6.813,62.617 6.974,63.27 7.149,63.918 L5.145,64.457 Z M97.991,66.387 L96.013,65.766 C96.214,65.123 96.401,64.477 96.576,63.826 L98.579,64.363 C98.397,65.043 98.201,65.717 97.991,66.387 Z M6.42,68.479 C6.178,67.818 5.952,67.152 5.739,66.48 L7.715,65.855 C7.918,66.498 8.137,67.133 8.368,67.766 L6.42,68.479 Z M96.545,70.361 L94.63,69.566 C94.886,68.945 95.132,68.316 95.362,67.682 L97.311,68.391 C97.069,69.055 96.814,69.711 96.545,70.361 Z M8.038,72.361 C7.741,71.727 7.456,71.084 7.186,70.436 L9.1,69.639 C9.359,70.26 9.631,70.873 9.915,71.48 L8.038,72.361 Z M94.757,74.191 L92.917,73.23 C93.229,72.633 93.528,72.029 93.813,71.418 L95.692,72.295 C95.393,72.934 95.083,73.566 94.757,74.191 Z M9.991,76.092 C9.639,75.484 9.299,74.869 8.973,74.246 L10.811,73.285 C11.123,73.881 11.448,74.469 11.784,75.051 L9.991,76.092 Z M92.643,77.844 L90.893,76.73 C91.256,76.16 91.606,75.584 91.944,75.002 L93.739,76.041 C93.386,76.65 93.02,77.25 92.643,77.844 Z M12.26,79.639 C11.857,79.063 11.465,78.48 11.086,77.887 L12.834,76.772 C13.196,77.338 13.571,77.897 13.957,78.445 L12.26,79.639 Z M90.218,81.299 L88.573,80.035 C88.983,79.502 89.384,78.959 89.77,78.406 L91.468,79.598 C91.063,80.174 90.646,80.742 90.218,81.299 Z M14.832,82.977 C14.379,82.439 13.938,81.891 13.51,81.334 L15.155,80.07 C15.565,80.604 15.986,81.127 16.418,81.641 L14.832,82.977 Z M87.505,84.529 L85.976,83.127 C86.431,82.631 86.874,82.125 87.31,81.609 L88.895,82.943 C88.443,83.48 87.979,84.01 87.505,84.529 Z M17.684,86.082 C17.186,85.586 16.699,85.078 16.223,84.559 L17.751,83.158 C18.207,83.654 18.672,84.139 19.149,84.613 L17.684,86.082 Z M84.525,87.51 L83.12,85.982 C83.616,85.527 84.103,85.061 84.58,84.584 L86.046,86.051 C85.55,86.547 85.042,87.033 84.525,87.51 Z M20.795,88.93 C20.256,88.477 19.727,88.014 19.209,87.541 L20.608,86.01 C21.104,86.463 21.612,86.908 22.127,87.34 L20.795,88.93 Z M81.298,90.221 L80.032,88.578 C80.565,88.168 81.089,87.746 81.604,87.313 L82.939,88.9 C82.401,89.352 81.854,89.791 81.298,90.221 Z M24.143,91.496 C23.566,91.092 22.998,90.676 22.44,90.246 L23.705,88.602 C24.239,89.012 24.782,89.41 25.332,89.797 L24.143,91.496 Z M77.847,92.641 L76.729,90.893 C77.298,90.529 77.856,90.156 78.407,89.77 L79.597,91.469 C79.022,91.871 78.44,92.262 77.847,92.641 Z M27.704,93.764 C27.094,93.412 26.491,93.047 25.898,92.668 L27.014,90.92 C27.581,91.281 28.157,91.631 28.741,91.969 L27.704,93.764 Z M74.204,94.75 L73.241,92.912 C73.838,92.6 74.428,92.275 75.009,91.939 L76.048,93.736 C75.44,94.086 74.825,94.424 74.204,94.75 Z M31.451,95.715 C30.811,95.418 30.18,95.105 29.556,94.781 L30.512,92.941 C31.11,93.252 31.714,93.549 32.327,93.836 L31.451,95.715 Z M70.392,96.533 L69.597,94.617 C70.217,94.359 70.83,94.088 71.436,93.805 L72.315,95.682 C71.682,95.98 71.04,96.264 70.392,96.533 Z M35.356,97.328 C34.692,97.088 34.036,96.834 33.385,96.564 L34.178,94.648 C34.8,94.906 35.429,95.15 36.065,95.381 L35.356,97.328 Z M66.435,97.979 L65.808,96.002 C66.451,95.797 67.089,95.58 67.72,95.35 L68.431,97.299 C67.771,97.539 67.106,97.766 66.435,97.979 Z M39.387,98.594 C38.706,98.412 38.03,98.217 37.36,98.006 L37.982,96.027 C38.622,96.229 39.268,96.416 39.919,96.588 L39.387,98.594 Z M62.36,99.068 L61.912,97.043 C62.571,96.898 63.225,96.738 63.872,96.564 L64.408,98.566 C63.731,98.748 63.048,98.916 62.36,99.068 Z M43.505,99.496 C42.811,99.375 42.122,99.24 41.437,99.09 L41.881,97.064 C42.536,97.209 43.196,97.338 43.862,97.453 L43.505,99.496 Z M58.209,99.801 L57.935,97.746 C58.606,97.656 59.272,97.555 59.933,97.438 L60.291,99.48 C59.602,99.602 58.908,99.707 58.209,99.801 Z M47.688,100.037 C46.985,99.979 46.285,99.902 45.59,99.813 L45.86,97.756 C46.524,97.844 47.192,97.914 47.864,97.973 L47.688,100.037 Z M54.007,100.168 L53.916,98.098 C54.591,98.066 55.263,98.023 55.931,97.965 L56.111,100.029 C55.413,100.09 54.712,100.137 54.007,100.168 Z M51.899,100.215 L51.85,100.215 C51.161,100.215 50.474,100.201 49.791,100.172 L49.879,98.1 C50.533,98.127 51.19,98.141 51.85,98.141 L51.899,100.215 L51.899,100.215 Z" id="Fill-241" fill="#FFFFFE"></path>
            <path d="M51.848,10.553 C29.078,10.553 10.551,29.078 10.551,51.851 C10.551,74.621 29.078,93.148 51.848,93.148 C74.62,93.148 93.146,74.621 93.146,51.851 C93.146,29.078 74.62,10.553 51.848,10.553 Z M51.848,94.184 C28.506,94.184 9.515,75.193 9.515,51.851 C9.515,28.508 28.506,9.516 51.848,9.516 C75.192,9.516 94.183,28.508 94.183,51.851 C94.183,75.193 75.192,94.184 51.848,94.184 L51.848,94.184 Z" id="Fill-242" fill="#0A3A69"></path>
            <path d="M22.423451,48.8917803 L17.1796023,46.097506 L17.1936061,46.0307778 L23.1192659,45.5762227 L23.4886168,43.8162663 L15.4602966,39.5798565 L15.0463086,41.5525091 L20.6967538,44.2144036 L20.6809995,44.2894728 L14.4073842,44.5969834 L14.0529124,46.2860411 L19.6602128,49.0912778 L19.6453337,49.1621765 L13.413988,49.3305154 L13,51.3031679 L22.0541002,50.6517367 L22.423451,48.8917803 Z M26.5621742,36.1684392 L25.1801501,35.5325274 L23.4861665,39.2140538 L21.5931419,38.3430149 L23.1535305,34.9518297 L21.7715064,34.3159179 L20.2111178,37.7071031 L18.3219644,36.8378455 L20.0088229,33.171804 L18.6267988,32.5358922 L16.1686523,37.8781702 L24.0969026,41.5262021 L26.5621742,36.1684392 Z M27.7912189,34.7227973 L26.6035132,32.999412 L28.5182161,30.4968705 L30.4919782,31.1928698 L31.6934666,29.6225089 L22.934092,26.7087732 L21.4891987,28.5972675 L26.5897305,36.2931581 L27.7912189,34.7227973 Z M27.0901803,29.9935437 L25.7442372,31.7527089 L23.7748285,28.8919416 L23.8162591,28.8377912 L27.0901803,29.9935437 Z M33.3234651,28.7120296 L31.480918,26.2265396 L32.5630927,25.4244755 L35.7336539,26.9256953 L37.3701173,25.7128149 L33.8622925,24.090636 L33.9075517,24.0145622 C34.1201835,23.620553 34.2244327,23.2178921 34.2202994,22.8065795 L34.2092008,22.6002022 C34.1622299,22.116973 33.9662007,21.6425561 33.6211134,21.1769514 C33.2777177,20.7136291 32.8800139,20.3833811 32.4280019,20.1862074 C31.97599,19.9890336 31.4924799,19.9354332 30.9774717,20.0254061 C30.4624635,20.115379 29.9402039,20.3565916 29.4106927,20.7490438 L29.4106927,20.7490438 L26.6444533,22.7992684 L31.8410621,29.8107266 L33.3234651,28.7120296 Z M29.0250983,22.9125128 L30.0247789,22.1715901 C30.3100758,21.9601395 30.5777441,21.8262889 30.8277837,21.7700383 C31.0778232,21.7137876 31.3082673,21.7312905 31.5191158,21.8225468 C31.7299643,21.9138031 31.9216604,22.0758324 32.094204,22.3086348 C32.2650561,22.5391547 32.3617786,22.7662705 32.3843714,22.989982 C32.4069643,23.2136935 32.3534406,23.4337054 32.2238004,23.6500178 C32.0941601,23.8663301 31.8878327,24.0793658 31.6048181,24.2891247 L31.6048181,24.2891247 L30.5978734,25.0351029 L29.0250983,22.9125128 Z M40.3800592,24.7833177 L40.4156567,22.6906864 L43.428543,21.768018 L44.629847,23.4818598 L46.5204525,22.9028794 L41.088299,15.4390864 L38.8146829,16.1353602 L38.4894536,25.3622981 L40.3800592,24.7833177 Z M42.5593989,20.5281743 L40.4424422,21.1764725 L40.5028659,17.7041095 L40.5680592,17.6841447 L42.5593989,20.5281743 Z M51.9987254,22.9647694 C52.7315829,22.9528432 53.3796497,22.7938396 53.9429257,22.4877588 C54.5062017,22.181678 54.9452778,21.7511811 55.2601539,21.1962683 C55.57503,20.6413554 55.7262276,19.980427 55.7137467,19.2134831 L55.7137467,19.2134831 L55.6958573,18.1141969 L52.0443522,18.1736199 L52.0669565,19.5626406 L53.9387456,19.5314831 L53.9371985,19.6587606 C53.9235392,19.8960724 53.8744871,20.1118612 53.7900422,20.3061271 L53.7200724,20.447791 C53.5668604,20.7230477 53.34305,20.9376553 53.0486412,21.0916139 C52.7542323,21.2455725 52.3982487,21.3259493 51.9806904,21.3327445 C51.5205241,21.340233 51.1196148,21.2352368 50.7779627,21.0177558 C50.4363105,20.8002748 50.1697002,20.4799967 49.9781317,20.0569214 C49.7865632,19.6338461 49.6858329,19.1183715 49.6759406,18.5104974 C49.6660483,17.9026234 49.7514075,17.3862513 49.9320181,16.9613813 C50.1126288,16.5365112 50.3694329,16.2105566 50.7024305,15.9835172 C51.035428,15.7564779 51.4249087,15.6393296 51.8708723,15.6320721 C52.1094771,15.6281892 52.3279734,15.654467 52.5263612,15.7109055 C52.724749,15.767344 52.9022603,15.8504041 53.0588953,15.9600859 C53.2155302,16.0697676 53.3491237,16.2039753 53.4596757,16.3627088 C53.5702277,16.5214424 53.6570166,16.7040032 53.7200422,16.9103914 L53.7200422,16.9103914 L55.594794,16.8798825 C55.5281165,16.4490922 55.3867543,16.0557437 55.1707073,15.699837 C54.9546603,15.3439302 54.6790494,15.038005 54.3438745,14.7820612 C54.0086997,14.5261175 53.6269051,14.3298891 53.1984907,14.193376 C52.7700764,14.0568629 52.3087429,13.992628 51.8144901,14.0006713 C51.2378619,14.0100551 50.7040625,14.1196076 50.2130917,14.3293287 C49.722121,14.5390498 49.2937241,14.8400943 48.927901,15.2324624 C48.5620778,15.6248304 48.2807155,16.1003522 48.083814,16.6590278 C47.8869124,17.2177033 47.7942168,17.8506875 47.8057269,18.5579802 C47.8207041,19.4783129 48.0061981,20.2701438 48.362209,20.9334729 C48.7182198,21.596802 49.2087903,22.1045119 49.8339202,22.4566027 C50.4590502,22.8086935 51.1806519,22.9780823 51.9987254,22.9647694 Z M57.0808759,23.1890366 C57.2632548,23.2179661 57.437434,23.1988529 57.6034135,23.1316971 C57.769393,23.0645414 57.9115085,22.9619595 58.02976,22.8239516 C58.1480115,22.6859437 58.2218245,22.5243473 58.251199,22.3391626 C58.2948157,22.0641913 58.2311916,21.8124792 58.0603266,21.5840262 C57.8894617,21.3555732 57.6693494,21.2199835 57.3999898,21.1772569 C57.1222127,21.1331952 56.8688412,21.1936797 56.6398755,21.3587104 C56.4109097,21.5237412 56.2746185,21.7437422 56.2310018,22.0187135 C56.1869401,22.2964906 56.248126,22.5499733 56.4145597,22.7791616 C56.5809934,23.0083499 56.8030988,23.1449749 57.0808759,23.1890366 Z M61.4358646,24.4622291 C62.2725227,24.7548785 63.0495466,24.8415732 63.7669365,24.7223132 C64.4843263,24.6030531 65.112455,24.2915527 65.6513226,23.787812 C66.1901901,23.2840712 66.6097006,22.6031454 66.9098538,21.7450346 C67.2090692,20.8896053 67.3045092,20.0983346 67.196174,19.3712225 C67.0878389,18.6441104 66.7921245,18.011722 66.3090309,17.4740571 C65.8259373,16.9363922 65.1700838,16.522642 64.3414705,16.2328064 L64.3414705,16.2328064 L61.3970776,15.2029055 L58.515606,23.4407699 L61.4358646,24.4622291 Z M61.8854468,22.9445952 L60.7792882,22.5576788 L62.6167892,17.3044313 L63.7269701,17.6927546 C64.2418366,17.8728466 64.6430232,18.1155045 64.9305298,18.4207283 C65.2180363,18.7259521 65.3834182,19.1028268 65.4266754,19.5513523 C65.4699326,19.9998778 65.3851005,20.5285017 65.1721793,21.1372241 C64.9573821,21.7513097 64.6930514,22.2209101 64.3791873,22.5460252 C64.0653232,22.8711403 63.6999503,23.0638704 63.2830688,23.1242155 C62.8661873,23.1845606 62.4003133,23.1246872 61.8854468,22.9445952 L61.8854468,22.9445952 Z M66.0367134,26.472841 C66.1994096,26.5601846 66.3701752,26.5994634 66.5490101,26.5906776 C66.7278449,26.5818918 66.895805,26.5317994 67.0528904,26.4404003 C67.2099758,26.3490012 67.3328621,26.220702 67.4215494,26.0555027 C67.5532366,25.8102068 67.5760026,25.5515782 67.4898475,25.279617 C67.4036923,25.0076559 67.2404698,24.8071754 67.0001799,24.6781757 C66.7523809,24.5451448 66.4932188,24.5188679 66.2226936,24.5993452 C65.9521684,24.6798224 65.7510622,24.842709 65.6193751,25.088005 C65.4863441,25.3358039 65.460693,25.595302 65.5424218,25.866499 C65.6241505,26.1376961 65.7889144,26.3398101 66.0367134,26.472841 Z M69.7168674,29.1287861 L73.532567,24.8920572 L73.5863969,24.9405377 L71.4774412,30.6570524 L72.3830499,31.4726654 L77.8341985,28.794884 L77.8880284,28.8433645 L74.0865877,33.064261 L75.4165026,34.2620142 L81.2569756,27.777096 L79.5660838,26.2542383 L73.8561303,29.0028813 L73.7801352,28.9344382 L75.9183172,22.9689722 L74.2274255,21.4461146 L68.3869525,27.9310329 L69.7168674,29.1287861 Z M76.4542091,36.023015 L78.4836986,35.5093651 L80.1630884,38.1755329 L78.8230506,39.7837436 L79.8768785,41.456781 L85.6578659,34.2597898 L84.3905471,32.2478181 L75.4003812,34.3499776 L76.4542091,36.023015 Z M81.132091,37.0120648 L79.9515616,35.1378783 L83.3185769,34.287871 L83.3549158,34.345562 L81.132091,37.0120648 Z M80.3920704,44.4645374 C80.6017688,45.1431016 80.8835241,45.6916095 81.2373363,46.1100612 C81.5911485,46.5285129 81.9942928,46.8083203 82.4467691,46.9494834 C82.8992454,47.0906466 83.3810431,47.0837387 83.8921621,46.9287598 C84.2387482,46.81868 84.5273144,46.6603705 84.7578607,46.4538312 C84.9884071,46.247292 85.1683601,46.0021219 85.2977198,45.7183209 C85.4270794,45.4345199 85.5126433,45.1196512 85.5544112,44.7737148 C85.5961792,44.4277784 85.6015779,44.060373 85.5706073,43.6714988 L85.5706073,43.6714988 L85.5182412,42.8670036 C85.5027559,42.6725665 85.4994471,42.4862603 85.5083148,42.3080851 C85.5171825,42.1299099 85.5427788,41.9673793 85.5851037,41.8204933 C85.6274286,41.6736074 85.6935386,41.5483623 85.7834339,41.4447583 C85.8733292,41.3411542 85.9937577,41.2689996 86.1447194,41.2282945 C86.3238604,41.1729341 86.5001483,41.1756947 86.6735832,41.2365763 C86.8470181,41.297458 87.0043868,41.414597 87.1456893,41.5879933 C87.2869918,41.7613896 87.4020991,41.9919434 87.4910112,42.2796546 C87.621863,42.7030787 87.6345264,43.066389 87.5290014,43.3695855 C87.4234764,43.6727821 87.2115341,43.8914129 86.8931746,44.025478 L86.8931746,44.025478 L87.4153235,45.7151028 C87.9095161,45.5534608 88.3054106,45.2854165 88.6030069,44.9109698 C88.9006032,44.5365231 89.0837502,44.0851965 89.152448,43.5569898 C89.2211457,43.0287831 89.1598721,42.4552545 88.9686272,41.8364039 C88.7807375,41.2284104 88.5071228,40.718272 88.1477831,40.3059887 C87.7884434,39.8937054 87.3779834,39.6094685 86.9164029,39.453278 C86.4548225,39.2970874 85.9720258,39.2983571 85.4680128,39.4570869 C84.8510377,39.6447788 84.4236045,39.9983932 84.1857131,40.51793 C83.9478217,41.0374668 83.8520007,41.6751535 83.89825,42.43099 L83.89825,42.43099 L83.9508288,43.4093676 C83.9714888,43.7360117 83.9695368,44.0183514 83.9449728,44.2563865 C83.9204088,44.4944216 83.8613273,44.6881144 83.7677284,44.8374651 C83.6741295,44.9868158 83.5336881,45.0904296 83.3464044,45.1483063 C83.1455494,45.210377 82.9488927,45.2042472 82.7564344,45.1299169 C82.5639761,45.0555866 82.3901379,44.9212361 82.2349201,44.7268656 C82.0797022,44.532495 81.9559596,44.2860256 81.8636923,43.9874574 C81.7697474,43.6834606 81.7324793,43.3968872 81.751888,43.1277371 C81.7712966,42.858587 81.8519459,42.624034 81.9938358,42.4240782 C82.1357258,42.2241224 82.3435192,42.0714467 82.6172161,41.9660512 L82.6172161,41.9660512 L82.0900344,40.2601408 C81.4943776,40.4590854 81.0366467,40.7603632 80.7168416,41.1639741 C80.3970365,41.5675851 80.2109516,42.0502978 80.1585866,42.6121122 C80.1062217,43.1739266 80.1840497,43.7914017 80.3920704,44.4645374 Z M81.5561877,49.6914441 L84.0279115,49.4876182 L85.2067141,50.3011619 L81.8272551,52.978582 L82.0086671,55.1785011 L86.5426492,51.5165034 L90.703265,54.4230356 L90.5215028,52.2188695 L86.4283992,49.405114 L86.4189433,49.2904464 L90.2539375,48.9742012 L90.1022939,47.1352726 L81.4045441,47.8525155 L81.5561877,49.6914441 Z" id="WEARAG.D.MASK" fill="#C1242B" fill-rule="nonzero"></path>
        </g>
    </g>
</svg>