<?xml version="1.0" encoding="UTF-8"?>
<svg width="104px" height="104px" viewBox="0 0 104 104" version="1.1" xmlns="http://www.w3.org/2000/svg" xmlns:xlink="http://www.w3.org/1999/xlink">
    <!-- Generator: Sketch 61.2 (89653) - https://sketch.com -->
    <title>pin4</title>
    <desc>Created with Sketch.</desc>
    <g id="Page-1" stroke="none" stroke-width="1" fill="none" fill-rule="evenodd">
        <g id="pin4" transform="translate(0.000000, 0.000000)">
            <path d="M103.698,51.851 C103.698,80.484 80.486,103.699 51.85,103.699 C23.215,103.699 4.97379915e-14,80.484 4.97379915e-14,51.851 C4.97379915e-14,23.214 23.215,-2.13162821e-14 51.85,-2.13162821e-14 C80.486,-2.13162821e-14 103.698,23.214 103.698,51.851" id="Fill-225" fill="#0A3A69"></path>
            <path d="M95.077,51.851 C95.077,75.723 75.724,95.078 51.848,95.078 C27.976,95.078 8.622,75.723 8.622,51.851 C8.622,27.976 27.976,8.623 51.848,8.623 C75.724,8.623 95.077,27.976 95.077,51.851" id="Fill-226" fill="#FFFFFE"></path>
            <path d="M35.206,43.486 C33.54,43.486 32.178,44.848 32.178,46.514 L32.178,53.659 C32.178,55.325 33.54,56.688 35.206,56.688 L37.85,56.688 L37.85,43.486 L35.206,43.486" id="Fill-227" fill="#0A3A69"></path>
            <path d="M41.608,72.633 C41.608,73.633 42.426,74.451 43.424,74.451 L45.024,74.451 C46.023,74.451 46.841,73.633 46.841,72.633 L46.841,59.338 L41.608,59.338 L41.608,72.633" id="Fill-228" fill="#0A3A69"></path>
            <path d="M49.098,43.029 C49.098,42.361 48.553,41.818 47.886,41.818 L40.275,41.818 C39.606,41.818 39.061,42.361 39.061,43.029 L39.061,56.916 C39.061,57.584 39.606,58.127 40.275,58.127 L47.886,58.127 C48.553,58.127 49.098,57.584 49.098,56.916 L49.098,43.029" id="Fill-229" fill="#0A3A69"></path>
            <path d="M69.425,38.156 C69.399,38.17 61.169,42.154 50.296,42.9 C50.296,42.943 50.309,42.984 50.309,43.029 L50.309,56.916 C50.309,57.02 50.289,57.119 50.276,57.219 C61.069,57.957 68.994,61.838 68.994,61.838 C71.493,59.033 73.15,55.431 73.518,51.4 C73.975,46.422 72.376,41.729 69.425,38.156" id="Fill-230" fill="#0A3A69"></path>
            <polyline id="Fill-231" fill="#C1242B" points="51.85 75.885 53.642 81.406 59.446 81.406 54.752 84.818 56.544 90.34 51.85 86.926 47.153 90.34 48.948 84.818 44.25 81.406 50.055 81.406 51.85 75.885"></polyline>
            <polyline id="Fill-232" fill="#C1242B" points="67.311 74.676 70.153 78.016 74.205 76.346 71.909 80.078 74.748 83.416 70.489 82.385 68.19 86.119 67.856 81.748 63.595 80.719 67.647 79.047 67.311 74.676"></polyline>
            <polyline id="Fill-233" fill="#C1242B" points="36.386 74.676 33.547 78.016 29.495 76.346 31.791 80.078 28.95 83.416 33.208 82.385 35.507 86.119 35.844 81.748 40.102 80.719 36.049 79.047 36.386 74.676"></polyline>
            <polyline id="Fill-234" fill="#C1242B" points="25.978 64.559 23.244 66.723 20.339 64.791 21.553 68.063 18.817 70.227 22.301 70.084 23.515 73.355 24.456 69.994 27.94 69.852 25.038 67.918 25.978 64.559"></polyline>
            <polyline id="Fill-235" fill="#C1242B" points="77.72 64.559 80.456 66.723 83.36 64.791 82.146 68.063 84.884 70.227 81.397 70.084 80.185 73.355 79.243 69.994 75.757 69.852 78.661 67.918 77.72 64.559"></polyline>
            <path d="M53.727,5.598 C53.105,5.573 52.479,5.561 51.85,5.561 L51.706,5.561 L51.706,3.486 L51.85,3.486 C52.506,3.486 53.16,3.499 53.81,3.525 L53.727,5.598 Z M47.676,5.745 L47.491,3.68 C48.188,3.617 48.889,3.57 49.594,3.537 L49.691,5.608 C49.016,5.641 48.342,5.686 47.676,5.745 Z M57.749,5.934 C57.085,5.85 56.416,5.777 55.743,5.721 L55.915,3.655 C56.619,3.714 57.318,3.787 58.013,3.877 L57.749,5.934 Z M43.676,6.28 L43.311,4.238 C44,4.115 44.696,4.007 45.395,3.914 L45.668,5.969 C45,6.059 44.335,6.162 43.676,6.28 Z M61.727,6.616 C61.072,6.473 60.412,6.346 59.747,6.23 L60.097,4.187 C60.794,4.305 61.483,4.44 62.169,4.589 L61.727,6.616 Z M39.737,7.16 L39.196,5.159 C39.873,4.976 40.556,4.807 41.245,4.652 L41.695,6.678 C41.038,6.824 40.384,6.984 39.737,7.16 Z M65.63,7.645 C64.987,7.445 64.341,7.26 63.688,7.088 L64.218,5.082 C64.899,5.262 65.575,5.457 66.245,5.664 L65.63,7.645 Z M35.893,8.383 L35.176,6.438 C35.835,6.195 36.5,5.967 37.172,5.752 L37.803,7.73 C37.161,7.934 36.523,8.151 35.893,8.383 Z M69.435,9.016 C68.811,8.76 68.183,8.518 67.549,8.289 L68.251,6.336 C68.916,6.577 69.573,6.83 70.225,7.098 L69.435,9.016 Z M32.177,9.936 L31.295,8.059 C31.928,7.761 32.569,7.477 33.218,7.205 L34.018,9.119 C33.398,9.378 32.784,9.65 32.177,9.936 Z M73.104,10.718 C72.507,10.408 71.901,10.111 71.288,9.826 L72.161,7.945 C72.802,8.242 73.433,8.553 74.058,8.875 L73.104,10.718 Z M28.611,11.808 L27.567,10.015 C28.172,9.662 28.788,9.322 29.411,8.995 L30.373,10.832 C29.778,11.145 29.191,11.469 28.611,11.808 Z M76.606,12.73 C76.04,12.369 75.463,12.022 74.878,11.686 L75.911,9.887 C76.522,10.238 77.126,10.604 77.721,10.98 L76.606,12.73 Z M25.216,13.983 L24.022,12.288 C24.595,11.885 25.178,11.491 25.769,11.111 L26.889,12.857 C26.324,13.221 25.766,13.596 25.216,13.983 Z M79.923,15.041 C79.388,14.632 78.843,14.234 78.291,13.85 L79.477,12.147 C80.054,12.55 80.623,12.965 81.182,13.393 L79.923,15.041 Z M22.024,16.449 L20.686,14.863 C21.223,14.41 21.77,13.969 22.326,13.539 L23.594,15.182 C23.061,15.592 22.538,16.015 22.024,16.449 Z M83.022,17.628 C82.525,17.176 82.018,16.732 81.501,16.301 L82.83,14.709 C83.37,15.16 83.9,15.621 84.42,16.097 L83.022,17.628 Z M19.053,19.183 L17.584,17.719 C18.081,17.221 18.586,16.734 19.104,16.258 L20.51,17.781 C20.014,18.238 19.529,18.705 19.053,19.183 Z M85.885,20.475 C85.429,19.98 84.962,19.494 84.485,19.022 L85.947,17.55 C86.446,18.047 86.935,18.551 87.409,19.069 L85.885,20.475 Z M16.331,22.164 L14.74,20.834 C15.191,20.295 15.654,19.765 16.127,19.245 L17.661,20.643 C17.206,21.141 16.762,21.647 16.331,22.164 Z M88.489,23.557 C88.077,23.023 87.655,22.502 87.221,21.987 L88.804,20.648 C89.257,21.186 89.7,21.732 90.13,22.288 L88.489,23.557 Z M13.875,25.37 L12.176,24.184 C12.579,23.605 12.995,23.037 13.422,22.479 L15.069,23.74 C14.659,24.273 14.262,24.818 13.875,25.37 Z M90.815,26.852 C90.452,26.284 90.076,25.727 89.689,25.178 L91.384,23.982 C91.788,24.557 92.181,25.139 92.561,25.73 L90.815,26.852 Z M11.707,28.781 L9.912,27.746 C10.262,27.136 10.627,26.535 11.003,25.941 L12.755,27.051 C12.395,27.62 12.045,28.197 11.707,28.781 Z M92.846,30.332 C92.532,29.736 92.206,29.148 91.869,28.57 L93.661,27.525 C94.015,28.131 94.354,28.745 94.682,29.367 L92.846,30.332 Z M9.846,32.369 L7.965,31.496 C8.262,30.855 8.573,30.225 8.897,29.6 L10.738,30.555 C10.428,31.151 10.129,31.757 9.846,32.369 Z M94.563,33.975 C94.303,33.354 94.03,32.741 93.744,32.136 L95.62,31.25 C95.919,31.885 96.204,32.525 96.476,33.175 L94.563,33.975 Z M8.305,36.107 L6.354,35.402 C6.594,34.738 6.848,34.081 7.118,33.432 L9.034,34.221 C8.778,34.843 8.535,35.472 8.305,36.107 Z M95.955,37.756 C95.751,37.113 95.532,36.479 95.3,35.848 L97.247,35.131 C97.489,35.789 97.718,36.456 97.932,37.128 L95.955,37.756 Z M7.099,39.965 L5.094,39.436 C5.275,38.754 5.469,38.078 5.678,37.408 L7.659,38.026 C7.459,38.668 7.272,39.314 7.099,39.965 Z M97.013,41.652 C96.864,40.992 96.702,40.34 96.526,39.691 L98.528,39.15 C98.712,39.826 98.882,40.508 99.036,41.195 L97.013,41.652 Z M6.238,43.908 L4.194,43.557 C4.315,42.859 4.45,42.17 4.599,41.484 L6.625,41.928 C6.482,42.582 6.353,43.242 6.238,43.908 Z M97.725,45.623 C97.636,44.953 97.532,44.289 97.413,43.631 L99.454,43.264 C99.577,43.953 99.686,44.648 99.78,45.35 L97.725,45.623 Z M5.725,47.91 L3.659,47.736 C3.717,47.031 3.792,46.334 3.88,45.64 L5.938,45.901 C5.853,46.566 5.782,47.236 5.725,47.91 Z M98.089,49.643 C98.058,48.967 98.011,48.296 97.95,47.629 L100.017,47.441 C100.079,48.141 100.127,48.842 100.161,49.547 L98.089,49.643 Z M3.485,51.947 L3.485,51.851 C3.485,51.178 3.499,50.507 3.526,49.842 L5.598,49.924 C5.573,50.563 5.559,51.205 5.559,51.851 L3.485,51.947 Z M100.169,53.959 L98.097,53.87 C98.126,53.201 98.14,52.527 98.14,51.851 L98.14,51.667 L100.214,51.651 L100.214,51.851 C100.214,52.558 100.198,53.26 100.169,53.959 Z M3.674,56.16 C3.614,55.464 3.567,54.763 3.536,54.057 L5.607,53.964 C5.637,54.64 5.682,55.312 5.741,55.98 L3.674,56.16 Z M99.807,58.16 L97.751,57.893 C97.837,57.229 97.909,56.559 97.968,55.886 L100.033,56.064 C99.974,56.768 99.897,57.465 99.807,58.16 Z M4.229,60.34 C4.107,59.65 3.998,58.955 3.907,58.254 L5.963,57.984 C6.051,58.654 6.155,59.318 6.272,59.98 L4.229,60.34 Z M99.079,62.313 L97.054,61.865 C97.198,61.211 97.329,60.551 97.444,59.885 L99.487,60.244 C99.366,60.938 99.229,61.629 99.079,62.313 Z M5.145,64.457 C4.963,63.781 4.795,63.098 4.643,62.408 L6.666,61.959 C6.813,62.617 6.974,63.27 7.149,63.918 L5.145,64.457 Z M97.991,66.387 L96.013,65.766 C96.214,65.123 96.401,64.477 96.576,63.826 L98.579,64.363 C98.397,65.043 98.201,65.717 97.991,66.387 Z M6.42,68.479 C6.178,67.818 5.952,67.152 5.739,66.48 L7.715,65.855 C7.918,66.498 8.137,67.133 8.368,67.766 L6.42,68.479 Z M96.545,70.361 L94.63,69.566 C94.886,68.945 95.132,68.316 95.362,67.682 L97.311,68.391 C97.069,69.055 96.814,69.711 96.545,70.361 Z M8.038,72.361 C7.741,71.727 7.456,71.084 7.186,70.436 L9.1,69.639 C9.359,70.26 9.631,70.873 9.915,71.48 L8.038,72.361 Z M94.757,74.191 L92.917,73.23 C93.229,72.633 93.528,72.029 93.813,71.418 L95.692,72.295 C95.393,72.934 95.083,73.566 94.757,74.191 Z M9.991,76.092 C9.639,75.484 9.299,74.869 8.973,74.246 L10.811,73.285 C11.123,73.881 11.448,74.469 11.784,75.051 L9.991,76.092 Z M92.643,77.844 L90.893,76.73 C91.256,76.16 91.606,75.584 91.944,75.002 L93.739,76.041 C93.386,76.65 93.02,77.25 92.643,77.844 Z M12.26,79.639 C11.857,79.063 11.465,78.48 11.086,77.887 L12.834,76.772 C13.196,77.338 13.571,77.897 13.957,78.445 L12.26,79.639 Z M90.218,81.299 L88.573,80.035 C88.983,79.502 89.384,78.959 89.77,78.406 L91.468,79.598 C91.063,80.174 90.646,80.742 90.218,81.299 Z M14.832,82.977 C14.379,82.439 13.938,81.891 13.51,81.334 L15.155,80.07 C15.565,80.604 15.986,81.127 16.418,81.641 L14.832,82.977 Z M87.505,84.529 L85.976,83.127 C86.431,82.631 86.874,82.125 87.31,81.609 L88.895,82.943 C88.443,83.48 87.979,84.01 87.505,84.529 Z M17.684,86.082 C17.186,85.586 16.699,85.078 16.223,84.559 L17.751,83.158 C18.207,83.654 18.672,84.139 19.149,84.613 L17.684,86.082 Z M84.525,87.51 L83.12,85.982 C83.616,85.527 84.103,85.061 84.58,84.584 L86.046,86.051 C85.55,86.547 85.042,87.033 84.525,87.51 Z M20.795,88.93 C20.256,88.477 19.727,88.014 19.209,87.541 L20.608,86.01 C21.104,86.463 21.612,86.908 22.127,87.34 L20.795,88.93 Z M81.298,90.221 L80.032,88.578 C80.565,88.168 81.089,87.746 81.604,87.313 L82.939,88.9 C82.401,89.352 81.854,89.791 81.298,90.221 Z M24.143,91.496 C23.566,91.092 22.998,90.676 22.44,90.246 L23.705,88.602 C24.239,89.012 24.782,89.41 25.332,89.797 L24.143,91.496 Z M77.847,92.641 L76.729,90.893 C77.298,90.529 77.856,90.156 78.407,89.77 L79.597,91.469 C79.022,91.871 78.44,92.262 77.847,92.641 Z M27.704,93.764 C27.094,93.412 26.491,93.047 25.898,92.668 L27.014,90.92 C27.581,91.281 28.157,91.631 28.741,91.969 L27.704,93.764 Z M74.204,94.75 L73.241,92.912 C73.838,92.6 74.428,92.275 75.009,91.939 L76.048,93.736 C75.44,94.086 74.825,94.424 74.204,94.75 Z M31.451,95.715 C30.811,95.418 30.18,95.105 29.556,94.781 L30.512,92.941 C31.11,93.252 31.714,93.549 32.327,93.836 L31.451,95.715 Z M70.392,96.533 L69.597,94.617 C70.217,94.359 70.83,94.088 71.436,93.805 L72.315,95.682 C71.682,95.98 71.04,96.264 70.392,96.533 Z M35.356,97.328 C34.692,97.088 34.036,96.834 33.385,96.564 L34.178,94.648 C34.8,94.906 35.429,95.15 36.065,95.381 L35.356,97.328 Z M66.435,97.979 L65.808,96.002 C66.451,95.797 67.089,95.58 67.72,95.35 L68.431,97.299 C67.771,97.539 67.106,97.766 66.435,97.979 Z M39.387,98.594 C38.706,98.412 38.03,98.217 37.36,98.006 L37.982,96.027 C38.622,96.229 39.268,96.416 39.919,96.588 L39.387,98.594 Z M62.36,99.068 L61.912,97.043 C62.571,96.898 63.225,96.738 63.872,96.564 L64.408,98.566 C63.731,98.748 63.048,98.916 62.36,99.068 Z M43.505,99.496 C42.811,99.375 42.122,99.24 41.437,99.09 L41.881,97.064 C42.536,97.209 43.196,97.338 43.862,97.453 L43.505,99.496 Z M58.209,99.801 L57.935,97.746 C58.606,97.656 59.272,97.555 59.933,97.438 L60.291,99.48 C59.602,99.602 58.908,99.707 58.209,99.801 Z M47.688,100.037 C46.985,99.979 46.285,99.902 45.59,99.813 L45.86,97.756 C46.524,97.844 47.192,97.914 47.864,97.973 L47.688,100.037 Z M54.007,100.168 L53.916,98.098 C54.591,98.066 55.263,98.023 55.931,97.965 L56.111,100.029 C55.413,100.09 54.712,100.137 54.007,100.168 Z M51.899,100.215 L51.85,100.215 C51.161,100.215 50.474,100.201 49.791,100.172 L49.879,98.1 C50.533,98.127 51.19,98.141 51.85,98.141 L51.899,100.215 L51.899,100.215 Z" id="Fill-241" fill="#FFFFFE"></path>
            <path d="M51.848,10.553 C29.078,10.553 10.551,29.078 10.551,51.851 C10.551,74.621 29.078,93.148 51.848,93.148 C74.62,93.148 93.146,74.621 93.146,51.851 C93.146,29.078 74.62,10.553 51.848,10.553 Z M51.848,94.184 C28.506,94.184 9.515,75.193 9.515,51.851 C9.515,28.508 28.506,9.516 51.848,9.516 C75.192,9.516 94.183,28.508 94.183,51.851 C94.183,75.193 75.192,94.184 51.848,94.184 L51.848,94.184 Z" id="Fill-242" fill="#0A3A69"></path>
            <path d="M24.0685278,39.845547 L20.7494852,36.1710463 L20.7793502,36.1227101 L25.5524448,37.4438424 L26.3401341,36.1689752 L21.2469067,30.5759424 L20.3640228,32.0048812 L24.0392215,35.6907222 L24.0056233,35.7451004 L19.0014322,34.21022 L18.2454745,35.43373 L21.8462805,39.2197067 L21.8145489,39.2710639 L16.882884,37.6390689 L16,39.0680076 L23.2808384,41.1204142 L24.0685278,39.845547 Z M31.5580752,29.9697854 L30.6394986,29.0960455 L28.3119729,31.5430101 L27.0537545,30.3462067 L29.1977214,28.0922203 L28.2791448,27.2184804 L26.1351779,29.4724667 L24.8795325,28.2781108 L27.1972684,25.8414383 L26.2786918,24.9676984 L22.9012097,28.5184988 L28.1708033,33.530878 L31.5580752,29.9697854 Z M33.7593848,28.2797183 L33.2899021,26.5999463 L35.4768184,25.1462361 L36.8439154,26.2293364 L38.2161323,25.3171819 L32.1021718,20.6483907 L30.4519627,21.7453352 L32.3871679,29.1918729 L33.7593848,28.2797183 Z M34.4877287,24.3627812 L32.9512243,25.3841427 L32.1734263,22.5966361 L32.2207441,22.5651825 L34.4877287,24.3627812 Z M40.7382293,24.3197992 L39.9048401,21.8799235 L40.9666225,21.5172912 L43.1040546,23.5117951 L44.7103963,22.9631787 L42.3362462,20.7874565 L42.3913114,20.7381817 C42.6598874,20.4791987 42.8446048,20.1859054 42.9454635,19.8583018 L42.9889047,19.6916408 C43.0739615,19.2960937 43.0384441,18.8698029 42.8823524,18.4127685 C42.7270258,17.9579744 42.4948888,17.5950829 42.1859414,17.3240939 C41.8769939,17.0531049 41.5066875,16.8881294 41.0750222,16.8291674 C40.6433568,16.7702053 40.1676419,16.8294823 39.6478772,17.0069984 L39.6478772,17.0069984 L36.932555,17.9343667 L39.2831124,24.8167676 L40.7382293,24.3197992 Z M38.7939695,18.6270321 L39.7752493,18.291894 C40.0552949,18.1962496 40.3016968,18.1577514 40.5144551,18.1763993 C40.7272134,18.1950473 40.9057404,18.2672897 41.050036,18.3931265 C41.1943317,18.5189632 41.3055024,18.6961402 41.3835483,18.9246574 C41.460829,19.1509343 41.4801172,19.3557395 41.441413,19.5390731 C41.4027088,19.7224067 41.3045094,19.8835311 41.1468147,20.0224462 C40.9891201,20.1613614 40.7713701,20.2782586 40.4935649,20.3731379 L40.4935649,20.3731379 L39.5053629,20.7102595 L38.7939695,18.6270321 Z M49.6863222,22.3181277 L50.1982234,20.6504801 L52.8238745,20.6076745 L53.3896654,22.2577526 L55.0371737,22.2308935 L52.411854,15 L50.4305832,15.0323004 L48.0388139,22.3449867 L49.6863222,22.3181277 Z M52.4143655,19.4141912 L50.5686108,19.4442823 L51.419904,16.6783243 L51.4767146,16.6773981 L52.4143655,19.4141912 Z M60.0637081,23.2528207 L61.6107399,18.7603059 L61.6678197,18.7799618 L61.9118964,23.8517006 L62.8721798,24.1823815 L66.1814144,20.3530316 L66.2384942,20.3726875 L64.6972435,24.8484141 L66.1074499,25.3340294 L68.475403,18.4575943 L66.6824262,17.840169 L63.197752,21.8081618 L63.1171688,21.7804124 L62.8144315,16.5081954 L61.0214547,15.8907702 L58.6535017,22.7672053 L60.0637081,23.2528207 Z M68.5858487,26.7853076 L69.9976346,25.7601996 L72.1212982,27.3031441 L71.5823058,28.962379 L72.9153414,29.930894 L75.1618837,22.5735051 L73.5587934,21.4087823 L67.2528131,25.8167926 L68.5858487,26.7853076 Z M72.5119376,26.1036768 L71.0184965,25.0186194 L73.3604909,23.3189724 L73.4064577,23.3523695 L72.5119376,26.1036768 Z M75.3670193,32.7080967 C75.7597691,33.1508621 76.1624278,33.4701212 76.5749953,33.6658742 C76.9875628,33.8616271 77.3898368,33.9351801 77.7818172,33.886533 C78.1737975,33.8378859 78.537053,33.6667739 78.8715836,33.3731971 C79.0967084,33.1703381 79.2611982,32.9508525 79.3650528,32.7147403 C79.4689074,32.4786281 79.5210675,32.2306169 79.521533,31.970707 C79.5219986,31.710797 79.4785319,31.4423875 79.391133,31.1654787 C79.3037342,30.8885699 79.1813437,30.6078893 79.0239617,30.3234371 L79.0239617,30.3234371 L78.7072559,29.7309382 C78.6285649,29.5887121 78.5619138,29.4484645 78.5073026,29.3101954 C78.4526915,29.1719263 78.4161616,29.0397706 78.397713,28.9137283 C78.3792643,28.7876861 78.3863165,28.6698784 78.4188695,28.5603054 C78.4514226,28.4507324 78.5179743,28.3545144 78.6185246,28.2716516 C78.7354147,28.1679656 78.8701491,28.1093696 79.0227277,28.0958635 C79.1753064,28.0823574 79.3350604,28.1170759 79.5019896,28.2000189 C79.6689189,28.2829619 79.8356465,28.4182996 80.0021724,28.6060321 C80.2472483,28.8823177 80.3819362,29.1536723 80.406236,29.4200958 C80.4305358,29.6865194 80.3449625,29.925403 80.1495161,30.1367466 L80.1495161,30.1367466 L81.1274631,31.2392324 C81.4468544,30.9464263 81.6550163,30.6067134 81.7519489,30.2200937 C81.8488815,29.8334739 81.8324915,29.4279121 81.7027789,29.0034082 C81.5730663,28.5789043 81.3291161,28.1647513 80.9709283,27.7609493 C80.6190244,27.3642315 80.2357532,27.0712882 79.8211145,26.8821193 C79.4064758,26.6929505 78.997125,26.6185546 78.593062,26.6589319 C78.188999,26.6993091 77.8230443,26.8664862 77.4951979,27.1604631 C77.091596,27.5153089 76.8889588,27.9308184 76.8872865,28.4069915 C76.8856142,28.8831646 77.032434,29.4000901 77.3277459,29.957768 L77.3277459,29.957768 L77.704476,30.682152 C77.8326093,30.9229279 77.9283296,31.1378659 77.9916371,31.3269662 C78.0549445,31.5160664 78.076791,31.683399 78.0571766,31.828964 C78.0375622,31.9745289 77.9666533,32.1015109 77.8444501,32.2099098 C77.7133915,32.3261638 77.5620395,32.3892153 77.3903941,32.3990645 C77.2187486,32.4089137 77.0405706,32.3668036 76.8558602,32.272734 C76.6711498,32.1786645 76.4923897,32.0342214 76.3195797,31.8394046 C76.1436278,31.6410457 76.0166859,31.4363971 75.9387541,31.2254587 C75.8608223,31.0145202 75.8412765,30.8087539 75.8801167,30.6081598 C75.918957,30.4075656 76.0240883,30.2201633 76.1955106,30.045953 L76.1955106,30.045953 L75.2081375,28.9328408 C74.824588,29.288887 74.58094,29.6751092 74.4771938,30.0915074 C74.3734475,30.5079056 74.3984132,30.9382975 74.552091,31.3826833 C74.7057687,31.827069 74.9774114,32.2688735 75.3670193,32.7080967 Z M78.9622736,37.1220593 L80.7117229,36.0216368 L81.8959958,36.1703016 L80.4257221,39.4486466 L81.4051359,41.0057166 L83.3508443,36.5557091 L87.5442568,37.1063862 L86.5629522,35.5463103 L82.4551102,35.0382988 L82.4040596,34.9571388 L85.1184114,33.2497823 L84.2997122,31.9482161 L78.1435744,35.8204931 L78.9622736,37.1220593 Z" id="WEARAMASK" fill="#C1242B" fill-rule="nonzero"></path>
        </g>
    </g>
</svg>